<mxfile host="app.diagrams.net" agent="Mozilla/5.0 (Windows NT 10.0; Win64; x64) AppleWebKit/537.36 (KHTML, like Gecko) Chrome/131.0.0.0 Safari/537.36 Edg/131.0.0.0" version="26.0.3">
  <diagram name="Page-1" id="SX-e1pIUUj1fJFstk4do">
    <mxGraphModel dx="867" dy="623" grid="1" gridSize="10" guides="1" tooltips="1" connect="1" arrows="1" fold="1" page="1" pageScale="1" pageWidth="1100" pageHeight="850" math="0" shadow="0">
      <root>
        <mxCell id="0" />
        <mxCell id="1" parent="0" />
        <mxCell id="N5-LPZXKi_8cZZHX1J1W-3" value="" style="rounded=1;whiteSpace=wrap;html=1;fillColor=none;" vertex="1" parent="1">
          <mxGeometry x="370" y="240" width="470" height="360" as="geometry" />
        </mxCell>
        <mxCell id="Vt5023jZ4tZFl-p4LbUd-2" value="" style="rounded=1;whiteSpace=wrap;html=1;fillStyle=auto;dashed=1;" parent="1" vertex="1">
          <mxGeometry x="692.25" y="383.14" width="110" height="180" as="geometry" />
        </mxCell>
        <mxCell id="Vt5023jZ4tZFl-p4LbUd-17" value="Simulator / Producer&lt;br&gt;(Python env)" style="text;html=1;strokeColor=none;fillColor=none;align=center;verticalAlign=middle;whiteSpace=wrap;rounded=0;" parent="1" vertex="1">
          <mxGeometry x="686" y="567" width="122.5" height="30" as="geometry" />
        </mxCell>
        <mxCell id="Vt5023jZ4tZFl-p4LbUd-33" value="" style="group" parent="1" vertex="1" connectable="0">
          <mxGeometry x="698.87" y="253" width="100" height="103.14" as="geometry" />
        </mxCell>
        <mxCell id="Vt5023jZ4tZFl-p4LbUd-29" value="" style="rounded=1;whiteSpace=wrap;html=1;fillStyle=auto;dashed=1;" parent="Vt5023jZ4tZFl-p4LbUd-33" vertex="1">
          <mxGeometry x="5.6200000000000045" width="85" height="80" as="geometry" />
        </mxCell>
        <mxCell id="Vt5023jZ4tZFl-p4LbUd-30" value="DB (PostgreSQL)" style="text;html=1;strokeColor=none;fillColor=none;align=center;verticalAlign=middle;whiteSpace=wrap;rounded=0;" parent="Vt5023jZ4tZFl-p4LbUd-33" vertex="1">
          <mxGeometry x="-1.88" y="80" width="100" height="23.14" as="geometry" />
        </mxCell>
        <mxCell id="Vt5023jZ4tZFl-p4LbUd-117" value="" style="shape=image;verticalLabelPosition=bottom;labelBackgroundColor=default;verticalAlign=top;aspect=fixed;imageAspect=0;image=data:image/png,iVBORw0KGgoAAAANSUhEUgAAAEgAAABICAYAAABV7bNHAAAABGdBTUEAALGPC/xhBQAAACBjSFJNAAB6JgAAgIQAAPoAAACA6AAAdTAAAOpgAAA6mAAAF3CculE8AAAABmJLR0QA/wD/AP+gvaeTAAAACXBIWXMAADsOAAA7DgHMtqGDAAAAB3RJTUUH5AYMCjADz09bswAAEe1JREFUeNrtnHmUVNWdxz+/V9Xd7AiyCai4jRg1oo0xSOJCHEXjmlEzGmNixqRdEtE5OWNmkpmJMUazTUQx0mjG0cm4JTFq4hIFwVHUAZoRRWRHkR0FoVm6u6reb/743kcXTXXX0shgTr7n9Knq6vfuu/d7f/vvVsNf0CHs/3sCCT55w3gae2Xot6rGSOG2JkXPwzNM+fE4AEZedQdRKk0um6kCugFDgOHAgALDZYG3gAVAY/UjIzItF71Owz3jPlqCauvGg5HGGQAMBQ4HerS5LAbWA8vD60Zymc1EaRomXb/zWFAdxhkBHBB++gIObAM+BDYAW4FmYF9gNLA/cGC4NmpnuluApeFnOvAq8AZ4I6RoqP/W7iFo5DfuIGcxEdYX+CxwDnAKMLAAOQk8LGozsAyYCvwv8DqwCqgJY1wcXgcA6UBuC5AJv3cpMMftwPvAImBJuLYJaAz39wS6hzGPBvYLn20JJN0LPCfyjYb66yonKOxyF+BM4Abg02ESy4HZYbGrwi5nw6IGIPHvgVTgAKB/2Om1wBykIqMCkfOBGUglFoexmsJzByMpPSCMtxh4IZC+3rCmbU3bmHf/dwrNO4Uk7BDgLOCvgWPDPF4AfozzEpBtmNS+6rVLUHjIIOBfga8AOeBx4EFgtuHrHYsb6scVvDfWTLoD/YAjgZFhokcCVcCfgF8B08lGH3g6BsPMSYfFZSHKuju5rJM2GNINVraAm0fmlow5LDwjWUsTUqs3g4Stw2nB6B2k9Srgc0jCfwn8BNhUaB3tEhTI2R+4Czgb6fAPgWnm3uxmBwJHhQkODAtKIfXwICnzgZXAEoe1cS72VCrqHe7rA7w4q/7lxpF1nxkGnAicEMYaEAjcDqxBdmgu8AYwD7fNbm6me24Exobr85Go+Ppw32Tg2epuNYtbtjX3Rqr9j2GNDwL/BKwsRNIuBAVyegJ3A5cCjwE3WGTveexHAV8FzkVGspr2kQu7+Q4wE3glSOB6LAaPDgiSeRlSg1QHY8XIhjQATwB/DFLSA/gycD1wWJH7lwL1wAPg68COB36O7OpTwDXA8rYk7TSp2rrxpKrAY64HxgHPA1e6szYsZhKyR/sWWRBI16uDRIxA6vo42CawU4F/By5B6hEVGcuQYT8IOD1sUFekRi8C04C/Cn+3du7vC5wGfApsQeTpGW7xZGQnzwr3vjB45JnbVjc8W5igwSPPxGOGA7cjN1uHs8iMrwL/FhZZCdYC1yJPNhZ5kiOoLA4zpKKnIrVc4MZskxoNRTbOOrh3GDDWLV6DpHo6cAza+FQgKU5I2kFQbd14LE6B+XXAecDPgIcxTkXq1q9CcmLgNje/37AjkWE+tMKx8hGFxZ5hsNG02BeRXTmqyL29AsHrMKYB85AU1SJpXJkQtJNoe5QbCnwRWAE8inT8RmQ8K8UrwD3m1hP4AZKc3Yn9gdsdrnH4IMz3v0u4ry9wK84Yw2cC/4mE4AyA2rrbdyUIOB7t7lOYL0Ce4jOdmHwOeAB5k3PRLn0U6A3cYnA5itH+HsVMxTAQuCLrAExB0foYoHuipRHAcXV3JDeMCJ+9ghsouOreiYkvRfHOPshLdPmICAJ53puRIW4Avo9cfTEclzLrj2KmDUgi90n+GAEYDopuR6O4Yw7yEiM7Oek/oB0djaLYjxpDgNtQ5P0o8FAJ9/QNhGSQxFeTZ5vzVawPcnVbkC4fBHyiE5NtAqYqZmMsInxPoBa4gZxngTtQWtIRqpGWeKE/Rm0u7AJsQqLZD4ltpVgNzAEbCJy0h8hJ8CVSdgKKkx4scq0jySmIfIIGISla5cqMIzpXL5qPsRoFcIfsYYL6A1eDpZCqre7g2kZkVlJhvTtJUlsJSgObqowshUsN5WAZTjYQ1G0PEwQwFvxY3OaiILI9vIfKJ32Rqm1B3gwCIW0RZ/VqnSRoeXg9OowTI/VdgLxbMzKmxyHJ7QxySJ1eRbnf2h3PM49ReeOydtazGCXGB6FwYUaY5y4EZcOgvYkthXlT+L3SCS8N76tRdPob4DVgUcpozMWA0QWFFtegALW67Cdp938B3Gcer3aLyE84Q/K9LJBQSJLXhNf9AoFz3WiK4l0JWo3igCGY90Q73K7xKoLtwCqiGOLoF5qENYJ3B4bknJMwuqKSyCzg6vC8K8t8TjNws+e401Ls4xadDwyrrRuf1IdmogpCDYWT60y4BlSYA1hkDrNCES3d5uIMigl6BMI+oLJAcSuwgTiiypsXZaxmKPhlwIUoe343/PQAJrvbBDO/E0Xag8t4zgzgfkvRB7hFG8ErSF1+AvwuENSPXWtGIAP9DlKt0WFjF+RfkG+kN6ECV88w4CpU960EOSCDOxmr+TLwLDABhfHdgG+b2SWoltPHzEejhPGNMp8zJ8x7LEo+H45z9nxYRyosGJScFiqpLAxrTJoAa2mTorTeZL4ZiXtvlFA202pHykUV0AWzGuAKVIJIntULuNDdD0GR77EouMsiG1UO1ofXQUhFHopS/ntUTumBpDR5ZiHMQl5rJBKKOYGknQlqqB9HyL3eDp8PDa/FotD2UAN0j/AM6my0fea3kOGegpLYpDzRgNS8VCS5XWIrjwXOD4RlgEUhrBle4N5m4Jnw/sQ8wlryjXxbN78Q1ZVPSBmWcxrCQDVlElQNdM/FUWyRNxX4e5rWTQDZjCrkJJopbC8KIQkPNiEm8t14FtgIVgMcXODepagNNQB1azahxHontNXLJUhsR+TUHFweJl0uDKiuSueS98XQC+Vqq5BjKBXD0GbMRu6+LRyRXcjRvGx63inIBMyjgM1tS9AHgaT+yHC9G36vBLmWprRRmjT0R9KwAVhXxjOODPNchMq5hZAlLzIO2Ao8GnKK0wIPL+J8aLbzfuYZacBpRNW4XqhOu53yPQtI/7emqjyitDSjW3hmBql4qRiCivjbUbcjP24zIO1pb2ZX6ZqD4p+hwMkoF3sCg1kTd+607iCoYeK4RBnmh4+OCa9TKM9wQuiru3ly0KAY0khVIkq3P8n8z0Pq+SSyoQmqgf0sa45KyPl4EtmcU1C7aCZKVQo+oC1eR6p2XHjwImBjmQQlvfLulJZnJf31GsqvG41Cva0VqECXv7Zh4f3yvM+XIWnrQmt+9iSwtapq170pRNDKQMoR4WcxbaLLEpBDeVxXSqspvY+cQ/cSr89HL6DOJXn/hbLzBEmbqjHvsz8iLakN5C4CngZ4bcI1HRMUiiEfIpHri/pO21H4Xg62hPtqKE1lViEpTWpS5WKMKVV4A3UnEiT5V5J0fwj8Nm6qBjVCewG/xWxpOwXFnQmaVT8u8clTkfU/0WT2JtMatpcCz3v1Eq6fidTsECrL/fYB6tCGPMCuAW4yh2fAX4u6tBwNfB5J7mO401B/fXGC8tCAVK3WUwyk9aREqUjimm3hpyNsQS3uFHARhWtUpeBsYAz4ApRq5CON1OxesBbgSygpfhZ5tHbRHkGrUaZ8KHA0xtrwe6noDQyNldc0FLn2VeB/kL0bVSE5oNyrDqwrkqK5tOZiPVGU/BIq4F2KVLoeyLR39KUgQeHiTBisCjg35GmTkdqVgj7AOZFE+wl2DdQSZIFfo8BtLCpadQanI7e/AvgpMNWkdocBE8w8A3wNBZePhY3pEB2dqngZRbangg9Adml+sQHzcA4KxP6A6jKFsBAR3xclmZ1FV+DvkAQ/bNgsV+tqoeMvudvx6GzQGnR4qkPpKUbQWyjjHg58Kgw6tYzJHg1c6VG0DfiXMFZbTEYe7CQ636RM8Blkj1rMco7q3o8YlkYt6cHAw27+eimDFTuCVwdMBP6DKL6CODoDSUOpnmYD8HU3f8zc9kenui5CtZdG4AJzprhxHzqYtbswF7jQiBc60UC0ueeiHtkWpGbvI+naB+WC25A3fRFoTiSrGEGHo1Qjh871rUU25dQyJjsdqc/7yKZ9EtVfeqBjNWnUuxrF7u3dP4TUbTtS9cfQ4YxmtHG9aN3oHPKijahUexuQbagfV/Rk1xLUMjkAHWRoRB6iVGO9CZg0vHrh+yjsPxqFDHc21I+7FQVuH6JTGRciT1NK3FQM05DxT3LIamSQp4bXecAjwD+giuc5wDdRce8G8tS9lGPAp6PC9wzgAuQVnkK5WkfYBnwPfDzYQcB9qDwxDRnnxxxmmhHh9DCj0Z3BKBIuR0LbYh5wPtgi8IPDfBfRKiUGeAqyWyxLtadIuRHlIuJ0XA98A52ErS9FgkBxynSUEJ6N9PluOs7wW1CvagLYAHR877PIW30B2YPtjoNzGfCCO19DwenPKC9qb4snRYifgkqqzyGPdQFS7VHASTm4tKunr05hR2IQp+P+yCY5kmqg2OFJyVdjICRLqwv9XSCtEGIkLT8Ku3drICTprE4DrjWYG2GfQ/peG3atN6qLr6dyJJn7F1HbeyjwddS4nIKi9kdQJr8UbEF47j8jD/hm/to6DOsbJo5L1Oz5MPgZwBXgt4P9EEW/bY/nPQ58NxByM6or3U1rzeVtjK3ujELHU5LgcB2SvBZKt3GFkA3l6TdR8a8fkvYNgbwlyFPNxnNbsNSR6LDVF8IcvmfmK+I4Kk4QQNySIqrONQJ3IhEdBzY9cqbExvfRAfN9w+XPA99GYfy1SFTP3dDFV/RtBty6AQfinIVCiORs8xvATUi1qiivaJaPDLAWDKvZ+ktv7n4f8lRZYJvyMAcZ7YOx1HlIKw5Dduq7OE85xuxJqiyWdDihtm48ZqTc+Smy8i8Al4OvBjsD+FtNjLuobn6XlprLRSTnu9t7Zn48sl+nodChb3h2IwoWb3KYEyYzLOz8/hUQtBE4zc1eN/dPo5hnSyB83zD2QGQPR4X325GtuunDVObNvrkqZuZF1yWf3giqNgS5+THIGN7oUWa+xdWEnalCopocevw86jXtH94fg+yeh8U8h5qFGdSaeQfVhF5CoUW5WIJqzC1Img9AlcoUiru60noG6APUDfkVKqJtK5R2lFxaiImIiFeieGESMrzDLa76DfgMlDGPRTFF73DbXejo7zSHiWlgRphEIDwpi16LDPVFyHZVeqpkXSD+UGScq5AEtSDDvyJs2ELUBVlKOOhZ1pdZ2sPIq8bjCuMOQt8CuhDpeEzreaJVKEj7BJKarWFSc5GRfB95t8FhnNHhdUHY/TSSoIMqIGgqciSjkHROQOFGhCLoze6pJoh32JhiKKs4NWvijt1fho6sPIoCyaOQKM8EniZmFhH9kXu9GBn3UwoM6ci7bAhzSdSvUglag3kGt15hvPdo51s8paKi6l144Pbaq+54GngG9xogdlXrmH3PddTWjV+H8yOMe5E0HUVrWJBFRbnZqItyLTr6Er4nVnG6sTDUrpJvD22ucJzOEbSDKDXZHElPIRKT746tPa7u9qkAZpYG81QmnXNz4lQWpHZJbyxD52wQyG3HlNel3f0ElYPZrUXxnYLAYKybSI7MtH73tFzEyEBHyEjnkIHuFErJxfYEtuURlKH9Em1H2Ix6eNXIpefoXES+VxG0AdmMbihwa6xgjEakzn2QndvIblCxvYWgNWi3U0hVKjk8uhVJ4mAUbK74cyJoeyAmIagSFVuIJLEPUtV1dK5sslcRtBlJzSDwHK39rHIwC5F7BHI+U4GWzpYn9xaCEnU4IgT3C8u8vwV1YUBl3a2Ems7sTgSJewdBDu6sRwHjca45vU3xlnU+FqHK5yCUZsyl9UDqx5ughknjMH2j7zXgMFPmPw3lY6WgGfXiV6Mqw+HA43jr9y0+1gTlYRpKfC9CKjKe4gc6N6KC3URUObwaZegPY+1n6B9XghYgu/FN4BjMn0X/UeEtWgM+RwZ9Hiq5XIxq3l3QVxFGAD8He2d3TWqv+QdLIeU4Gfg9ajFdbcay0Ao6GRXgNyJvtdjd1pth4Eehju3foPrTd8jrjHYWeywXKxHTwyJvBH7tzi3A9CrPPJSzNLH2MwX0N/MxqIx7CVLN8UiKdhs5sBdJEOyQom6oBZOs8i10yKklzHcQKt3uh1TuVfSvNP5Em68R/NkRlEdSV1QZ/Aoqxe6HpL0ZFcHeQdL2ElK5TVEEM+/eveTslQQBHFs3niqDnFONGgUHowx9A+G/VLlZi4E3TCytdPoXfET4P7oivFb7AvJ3AAAAJXRFWHRkYXRlOmNyZWF0ZQAyMDIwLTA2LTEyVDEwOjQ4OjAzKzAwOjAwnq9LXAAAACV0RVh0ZGF0ZTptb2RpZnkAMjAyMC0wNi0xMlQxMDo0ODowMyswMDowMO/y8+AAAAAgdEVYdHNvZnR3YXJlAGh0dHBzOi8vaW1hZ2VtYWdpY2sub3JnvM8dnQAAABh0RVh0VGh1bWI6OkRvY3VtZW50OjpQYWdlcwAxp/+7LwAAABh0RVh0VGh1bWI6OkltYWdlOjpIZWlnaHQANTEyj41TgQAAABd0RVh0VGh1bWI6OkltYWdlOjpXaWR0aAA1MTIcfAPcAAAAGXRFWHRUaHVtYjo6TWltZXR5cGUAaW1hZ2UvcG5nP7JWTgAAABd0RVh0VGh1bWI6Ok1UaW1lADE1OTE5NTg4ODP3Ii9kAAAAE3RFWHRUaHVtYjo6U2l6ZQA0NDkxNkJCbZFw/AAAAFF0RVh0VGh1bWI6OlVSSQBmaWxlOi8vLi91cGxvYWRzLzU2L052dlZvUTUvMjQxNS9wb3N0Z3Jlc3FsX3BsYWluX2xvZ29faWNvbl8xNDYzODkucG5nB8qEHgAAAABJRU5ErkJggg==;" parent="Vt5023jZ4tZFl-p4LbUd-33" vertex="1">
          <mxGeometry x="12.129999999999995" y="4" width="72" height="72" as="geometry" />
        </mxCell>
        <mxCell id="Vt5023jZ4tZFl-p4LbUd-34" value="" style="group" parent="1" vertex="1" connectable="0">
          <mxGeometry x="697" y="483.14" width="100" height="80" as="geometry" />
        </mxCell>
        <mxCell id="Vt5023jZ4tZFl-p4LbUd-4" value="game sim" style="text;html=1;strokeColor=none;fillColor=none;align=center;verticalAlign=middle;whiteSpace=wrap;rounded=0;" parent="Vt5023jZ4tZFl-p4LbUd-34" vertex="1">
          <mxGeometry y="60" width="100" height="20" as="geometry" />
        </mxCell>
        <mxCell id="Vt5023jZ4tZFl-p4LbUd-125" value="" style="group" parent="Vt5023jZ4tZFl-p4LbUd-34" vertex="1" connectable="0">
          <mxGeometry x="20" width="60" height="60" as="geometry" />
        </mxCell>
        <mxCell id="Vt5023jZ4tZFl-p4LbUd-19" value="" style="group" parent="Vt5023jZ4tZFl-p4LbUd-125" vertex="1" connectable="0">
          <mxGeometry width="40" height="40" as="geometry" />
        </mxCell>
        <mxCell id="Vt5023jZ4tZFl-p4LbUd-8" value="" style="rounded=0;whiteSpace=wrap;html=1;" parent="Vt5023jZ4tZFl-p4LbUd-19" vertex="1">
          <mxGeometry width="40" height="40" as="geometry" />
        </mxCell>
        <mxCell id="Vt5023jZ4tZFl-p4LbUd-18" value="" style="shape=image;verticalLabelPosition=bottom;labelBackgroundColor=default;verticalAlign=top;aspect=fixed;imageAspect=0;image=data:image/png,iVBORw0KGgoAAAANSUhEUgAAADAAAAAwCAYAAABXAvmHAAAABGdBTUEAALGPC/xhBQAAAAFzUkdCAK7OHOkAAAAgY0hSTQAAeiYAAICEAAD6AAAAgOgAAHUwAADqYAAAOpgAABdwnLpRPAAAAAZiS0dEAP8A/wD/oL2nkwAAAAlwSFlzAADsOAAA7DgBcSvKOAAABqNJREFUaN7tmluMVHcdxz//mdllCQFs3VIFREJMGg1SLSJrpKFWSoxNk0YbbwQjvmhC692gYBqTJirVUmNrYxofgPYBExsqktiYYmOo1d0WLZbWFmuAwppyabite2FmzseHOTN7zsyZ2Zmpi33oeTlzcv7n//98f9dz/rvw5vH/PcL/aqIbvvsoo5TJkSsIPWgO7I3PE2gJuAREg3d/6o0hYGDLHiAU0MXgCvRacIl6FRURfWAeHQXH0ePgP9Cnwb+a6zmXi4r85Sefu7wCBrbsRXMhhPIK9EvgGnABmlcAQVudR9GD6C7wIeDs4Lb1l0fAwJbfVkAIa8EH0XdWwdqET57LwG70duDk4L2f71hArivZhHngXRV4LiL3CRvB/e3BxzaAPHobuomonF/5te2XQYCCvgt9Twy0A/kGUfQA+i3w9NTwievK79sILKmqmmYPCNhTsR6IwwRKEIHR6ThhO4EH7Ufmd8FPoSsP1KQI+gWNDgKHgdvBhR3C043luxYgEqpLVkCuAX+FXATnofmO4bVrCV15wMTvGGA2OLsryyvd43cjoHIcB++p5EI1BJKwsatgLroOnNMS3u4FNO0DA5t/A4QcODe2MKYBokbLpqwdge8AHkEXtIZ3rByFjz3z7V1jjPWsqLlZJ8Bn0BeAUlj6+NQeGNi8B0MI6FJwA7ga6J8Mmybn2kVqZAG9egp4EIrlIMX8J4FNWJtL9BSyE73b5z56Jrx3X3MBA5v3UBqboDBzxq3gNmBxXCqbxi91IHVeoB341NjUswTkavCb4HwiN3rwI+fDtU/UmBv6QGHmjBvB+yrwdgCfce4EvkFMwqOaQz8NrCMEfPaGRgGVmKcP3Ags6Az+dVp+8uxkFNZ7hQK6gah8VTJu6zzgcuDGhsWmhM9qTB3BX1LGkHzq2WR1qlwvQ1cl8y4HsHLT7uqANehbbCMUWsLbDJ5mzwzngscpM3vS6inw6rheZBUEPHD9pICQCwA9wPLphc+ey4i9Qxt3jyLvTsV/cq7qmrqUqNSX8kBlGeeIiy43PPrHkyN9P+vtKX4AeX/NTdatZ22OBcic6ryFycmZBVzxOuDjTjclvOgl8Bjy6wvjvQ8eu/OhESYKXyXZsVPwqbyaXSk2JAQks6J9+BL6Ivj7Yjm8WCrnLhoREXdsyfIKASwVy+HVcyMzXv7iTftO//D6o4uZKPwUvDkdMqThU7kxyZv0wBSuTsFfQu8fHZ2x9c8/2PraLN+6iPHeZUTMa1go26JXUgoriLiOUmEVuBgNDVZvBm+9gKTi9sJmx6sjfd87eufDSzi/6EfATejb0EJDCczusBlwdVavHz+ZGwlr1zwAwDg40gb8qfFS/hdH79o+n7HencB1DbU/uwTWJ2MavD58k+PToXgW+U+qCkEEeAEdbiNhh25deuQlxnq/gwn49kKnTmgXXpJX0AtpAQpReRw8NFW1KZfD89+/5al5yNoWbm4zGVt4qXlHHiKEIhQnBQz++DPVm09WErRZLkg54jSGt4P9Td3cMp5tInSq3BD0LPAESlh5IBlCtdWeRA41g68lkQYqr7pdxDNNhNZbnYy5eAw8kLyZSw2KyqfAh9FyMxGp+t5JPGf1hXqhrfPoFfTnwEQYGGoUMHjPuuqE28FHkl01OZlZC3RSRdovl0mhR4A7mJX/U8oz1H2RDW5bz8qv7zwL3AEOo+vB/ho8WZZqkYhaAk+iJTR0IfQM8gdwO/gCo2XCh4ZSAjI/6uM9yh5wGfI+sDf+oA9nR3v3H9686wpKucfAmS3LpQ4Dn0BPTHbazDALaC6j5l8k4jyBKAwMZqF2vjvt4ZsBVgO/w1hA8/Z/nsre6TmIBWTV+sruww7gRFjxVEc8XWxsxbKzrN5YkeYCX2lM+kTIEFsa9gEnOsXpbnM3Kxnbf5Uoov+m+tpirKS+IEybgKySmQqJepEpoSVwK7AKXY8eqc2TahTT7YGsj57MptYQXv9EHgCOUCw+Cjwe3wuX0QOAvAZeyIzn1rV+NtqPEeTzvejc+F4RmejCAV2GELyE7uniVWIheC/6ZWAb+vH43nPg0W5CqKu/Uvr8WoCF4P3oLZk1POtVIrtn/AvYAOwnRISVT0+/AAAPrQHoR9aBn6Wy6TRzyryoeKmMDqN7gV9C+VnImXzHmXYBAP59DYRZ4MUr0eXgB5FrqGyn96GzYvgxZAI8g76MHgSG0GNAqVmXnXYBDYL+thqg+i8GBXRGvBNxCS0CRWb2lDg/Rvhw59Z+83gjHv8F6L5jjOeM33YAAAAldEVYdGRhdGU6Y3JlYXRlADIwMjAtMDEtMTBUMTY6MzU6MjErMDA6MDD6q7LOAAAAJXRFWHRkYXRlOm1vZGlmeQAyMDIwLTAxLTEwVDE2OjM1OjIxKzAwOjAwi/YKcgAAAEZ0RVh0c29mdHdhcmUASW1hZ2VNYWdpY2sgNi43LjgtOSAyMDE5LTAyLTAxIFExNiBodHRwOi8vd3d3LmltYWdlbWFnaWNrLm9yZ0F74sgAAAAYdEVYdFRodW1iOjpEb2N1bWVudDo6UGFnZXMAMaf/uy8AAAAYdEVYdFRodW1iOjpJbWFnZTo6aGVpZ2h0ADUxMsDQUFEAAAAXdEVYdFRodW1iOjpJbWFnZTo6V2lkdGgANTEyHHwD3AAAABl0RVh0VGh1bWI6Ok1pbWV0eXBlAGltYWdlL3BuZz+yVk4AAAAXdEVYdFRodW1iOjpNVGltZQAxNTc4Njc0MTIxrUCUoQAAABN0RVh0VGh1bWI6OlNpemUAMjUuOEtCQjb8aXgAAABMdEVYdFRodW1iOjpVUkkAZmlsZTovLy4vdXBsb2Fkcy81Ni84YnZzM2FWLzIxMDcvZmlsZV90eXBlX3B5dGhvbl9pY29uXzEzMDIyMS5wbmc7vTyVAAAAAElFTkSuQmCC;" parent="Vt5023jZ4tZFl-p4LbUd-19" vertex="1">
          <mxGeometry width="40" height="40" as="geometry" />
        </mxCell>
        <mxCell id="Vt5023jZ4tZFl-p4LbUd-20" value="" style="group" parent="Vt5023jZ4tZFl-p4LbUd-125" vertex="1" connectable="0">
          <mxGeometry x="10" y="10" width="40" height="40" as="geometry" />
        </mxCell>
        <mxCell id="Vt5023jZ4tZFl-p4LbUd-21" value="" style="rounded=0;whiteSpace=wrap;html=1;" parent="Vt5023jZ4tZFl-p4LbUd-20" vertex="1">
          <mxGeometry width="40" height="40" as="geometry" />
        </mxCell>
        <mxCell id="Vt5023jZ4tZFl-p4LbUd-22" value="" style="shape=image;verticalLabelPosition=bottom;labelBackgroundColor=default;verticalAlign=top;aspect=fixed;imageAspect=0;image=data:image/png,iVBORw0KGgoAAAANSUhEUgAAADAAAAAwCAYAAABXAvmHAAAABGdBTUEAALGPC/xhBQAAAAFzUkdCAK7OHOkAAAAgY0hSTQAAeiYAAICEAAD6AAAAgOgAAHUwAADqYAAAOpgAABdwnLpRPAAAAAZiS0dEAP8A/wD/oL2nkwAAAAlwSFlzAADsOAAA7DgBcSvKOAAABqNJREFUaN7tmluMVHcdxz//mdllCQFs3VIFREJMGg1SLSJrpKFWSoxNk0YbbwQjvmhC692gYBqTJirVUmNrYxofgPYBExsqktiYYmOo1d0WLZbWFmuAwppyabite2FmzseHOTN7zsyZ2Zmpi33oeTlzcv7n//98f9dz/rvw5vH/PcL/aqIbvvsoo5TJkSsIPWgO7I3PE2gJuAREg3d/6o0hYGDLHiAU0MXgCvRacIl6FRURfWAeHQXH0ePgP9Cnwb+a6zmXi4r85Sefu7wCBrbsRXMhhPIK9EvgGnABmlcAQVudR9GD6C7wIeDs4Lb1l0fAwJbfVkAIa8EH0XdWwdqET57LwG70duDk4L2f71hArivZhHngXRV4LiL3CRvB/e3BxzaAPHobuomonF/5te2XQYCCvgt9Twy0A/kGUfQA+i3w9NTwievK79sILKmqmmYPCNhTsR6IwwRKEIHR6ThhO4EH7Ufmd8FPoSsP1KQI+gWNDgKHgdvBhR3C043luxYgEqpLVkCuAX+FXATnofmO4bVrCV15wMTvGGA2OLsryyvd43cjoHIcB++p5EI1BJKwsatgLroOnNMS3u4FNO0DA5t/A4QcODe2MKYBokbLpqwdge8AHkEXtIZ3rByFjz3z7V1jjPWsqLlZJ8Bn0BeAUlj6+NQeGNi8B0MI6FJwA7ga6J8Mmybn2kVqZAG9egp4EIrlIMX8J4FNWJtL9BSyE73b5z56Jrx3X3MBA5v3UBqboDBzxq3gNmBxXCqbxi91IHVeoB341NjUswTkavCb4HwiN3rwI+fDtU/UmBv6QGHmjBvB+yrwdgCfce4EvkFMwqOaQz8NrCMEfPaGRgGVmKcP3Ags6Az+dVp+8uxkFNZ7hQK6gah8VTJu6zzgcuDGhsWmhM9qTB3BX1LGkHzq2WR1qlwvQ1cl8y4HsHLT7uqANehbbCMUWsLbDJ5mzwzngscpM3vS6inw6rheZBUEPHD9pICQCwA9wPLphc+ey4i9Qxt3jyLvTsV/cq7qmrqUqNSX8kBlGeeIiy43PPrHkyN9P+vtKX4AeX/NTdatZ22OBcic6ryFycmZBVzxOuDjTjclvOgl8Bjy6wvjvQ8eu/OhESYKXyXZsVPwqbyaXSk2JAQks6J9+BL6Ivj7Yjm8WCrnLhoREXdsyfIKASwVy+HVcyMzXv7iTftO//D6o4uZKPwUvDkdMqThU7kxyZv0wBSuTsFfQu8fHZ2x9c8/2PraLN+6iPHeZUTMa1go26JXUgoriLiOUmEVuBgNDVZvBm+9gKTi9sJmx6sjfd87eufDSzi/6EfATejb0EJDCczusBlwdVavHz+ZGwlr1zwAwDg40gb8qfFS/hdH79o+n7HencB1DbU/uwTWJ2MavD58k+PToXgW+U+qCkEEeAEdbiNhh25deuQlxnq/gwn49kKnTmgXXpJX0AtpAQpReRw8NFW1KZfD89+/5al5yNoWbm4zGVt4qXlHHiKEIhQnBQz++DPVm09WErRZLkg54jSGt4P9Td3cMp5tInSq3BD0LPAESlh5IBlCtdWeRA41g68lkQYqr7pdxDNNhNZbnYy5eAw8kLyZSw2KyqfAh9FyMxGp+t5JPGf1hXqhrfPoFfTnwEQYGGoUMHjPuuqE28FHkl01OZlZC3RSRdovl0mhR4A7mJX/U8oz1H2RDW5bz8qv7zwL3AEOo+vB/ho8WZZqkYhaAk+iJTR0IfQM8gdwO/gCo2XCh4ZSAjI/6uM9yh5wGfI+sDf+oA9nR3v3H9686wpKucfAmS3LpQ4Dn0BPTHbazDALaC6j5l8k4jyBKAwMZqF2vjvt4ZsBVgO/w1hA8/Z/nsre6TmIBWTV+sruww7gRFjxVEc8XWxsxbKzrN5YkeYCX2lM+kTIEFsa9gEnOsXpbnM3Kxnbf5Uoov+m+tpirKS+IEybgKySmQqJepEpoSVwK7AKXY8eqc2TahTT7YGsj57MptYQXv9EHgCOUCw+Cjwe3wuX0QOAvAZeyIzn1rV+NtqPEeTzvejc+F4RmejCAV2GELyE7uniVWIheC/6ZWAb+vH43nPg0W5CqKu/Uvr8WoCF4P3oLZk1POtVIrtn/AvYAOwnRISVT0+/AAAPrQHoR9aBn6Wy6TRzyryoeKmMDqN7gV9C+VnImXzHmXYBAP59DYRZ4MUr0eXgB5FrqGyn96GzYvgxZAI8g76MHgSG0GNAqVmXnXYBDYL+thqg+i8GBXRGvBNxCS0CRWb2lDg/Rvhw59Z+83gjHv8F6L5jjOeM33YAAAAldEVYdGRhdGU6Y3JlYXRlADIwMjAtMDEtMTBUMTY6MzU6MjErMDA6MDD6q7LOAAAAJXRFWHRkYXRlOm1vZGlmeQAyMDIwLTAxLTEwVDE2OjM1OjIxKzAwOjAwi/YKcgAAAEZ0RVh0c29mdHdhcmUASW1hZ2VNYWdpY2sgNi43LjgtOSAyMDE5LTAyLTAxIFExNiBodHRwOi8vd3d3LmltYWdlbWFnaWNrLm9yZ0F74sgAAAAYdEVYdFRodW1iOjpEb2N1bWVudDo6UGFnZXMAMaf/uy8AAAAYdEVYdFRodW1iOjpJbWFnZTo6aGVpZ2h0ADUxMsDQUFEAAAAXdEVYdFRodW1iOjpJbWFnZTo6V2lkdGgANTEyHHwD3AAAABl0RVh0VGh1bWI6Ok1pbWV0eXBlAGltYWdlL3BuZz+yVk4AAAAXdEVYdFRodW1iOjpNVGltZQAxNTc4Njc0MTIxrUCUoQAAABN0RVh0VGh1bWI6OlNpemUAMjUuOEtCQjb8aXgAAABMdEVYdFRodW1iOjpVUkkAZmlsZTovLy4vdXBsb2Fkcy81Ni84YnZzM2FWLzIxMDcvZmlsZV90eXBlX3B5dGhvbl9pY29uXzEzMDIyMS5wbmc7vTyVAAAAAElFTkSuQmCC;" parent="Vt5023jZ4tZFl-p4LbUd-20" vertex="1">
          <mxGeometry width="40" height="40" as="geometry" />
        </mxCell>
        <mxCell id="Vt5023jZ4tZFl-p4LbUd-23" value="" style="group" parent="Vt5023jZ4tZFl-p4LbUd-125" vertex="1" connectable="0">
          <mxGeometry x="20" y="20" width="40" height="40" as="geometry" />
        </mxCell>
        <mxCell id="Vt5023jZ4tZFl-p4LbUd-24" value="" style="rounded=0;whiteSpace=wrap;html=1;" parent="Vt5023jZ4tZFl-p4LbUd-23" vertex="1">
          <mxGeometry width="40" height="40" as="geometry" />
        </mxCell>
        <mxCell id="Vt5023jZ4tZFl-p4LbUd-25" value="" style="shape=image;verticalLabelPosition=bottom;labelBackgroundColor=default;verticalAlign=top;aspect=fixed;imageAspect=0;image=data:image/png,iVBORw0KGgoAAAANSUhEUgAAADAAAAAwCAYAAABXAvmHAAAABGdBTUEAALGPC/xhBQAAAAFzUkdCAK7OHOkAAAAgY0hSTQAAeiYAAICEAAD6AAAAgOgAAHUwAADqYAAAOpgAABdwnLpRPAAAAAZiS0dEAP8A/wD/oL2nkwAAAAlwSFlzAADsOAAA7DgBcSvKOAAABqNJREFUaN7tmluMVHcdxz//mdllCQFs3VIFREJMGg1SLSJrpKFWSoxNk0YbbwQjvmhC692gYBqTJirVUmNrYxofgPYBExsqktiYYmOo1d0WLZbWFmuAwppyabite2FmzseHOTN7zsyZ2Zmpi33oeTlzcv7n//98f9dz/rvw5vH/PcL/aqIbvvsoo5TJkSsIPWgO7I3PE2gJuAREg3d/6o0hYGDLHiAU0MXgCvRacIl6FRURfWAeHQXH0ePgP9Cnwb+a6zmXi4r85Sefu7wCBrbsRXMhhPIK9EvgGnABmlcAQVudR9GD6C7wIeDs4Lb1l0fAwJbfVkAIa8EH0XdWwdqET57LwG70duDk4L2f71hArivZhHngXRV4LiL3CRvB/e3BxzaAPHobuomonF/5te2XQYCCvgt9Twy0A/kGUfQA+i3w9NTwievK79sILKmqmmYPCNhTsR6IwwRKEIHR6ThhO4EH7Ufmd8FPoSsP1KQI+gWNDgKHgdvBhR3C043luxYgEqpLVkCuAX+FXATnofmO4bVrCV15wMTvGGA2OLsryyvd43cjoHIcB++p5EI1BJKwsatgLroOnNMS3u4FNO0DA5t/A4QcODe2MKYBokbLpqwdge8AHkEXtIZ3rByFjz3z7V1jjPWsqLlZJ8Bn0BeAUlj6+NQeGNi8B0MI6FJwA7ga6J8Mmybn2kVqZAG9egp4EIrlIMX8J4FNWJtL9BSyE73b5z56Jrx3X3MBA5v3UBqboDBzxq3gNmBxXCqbxi91IHVeoB341NjUswTkavCb4HwiN3rwI+fDtU/UmBv6QGHmjBvB+yrwdgCfce4EvkFMwqOaQz8NrCMEfPaGRgGVmKcP3Ags6Az+dVp+8uxkFNZ7hQK6gah8VTJu6zzgcuDGhsWmhM9qTB3BX1LGkHzq2WR1qlwvQ1cl8y4HsHLT7uqANehbbCMUWsLbDJ5mzwzngscpM3vS6inw6rheZBUEPHD9pICQCwA9wPLphc+ey4i9Qxt3jyLvTsV/cq7qmrqUqNSX8kBlGeeIiy43PPrHkyN9P+vtKX4AeX/NTdatZ22OBcic6ryFycmZBVzxOuDjTjclvOgl8Bjy6wvjvQ8eu/OhESYKXyXZsVPwqbyaXSk2JAQks6J9+BL6Ivj7Yjm8WCrnLhoREXdsyfIKASwVy+HVcyMzXv7iTftO//D6o4uZKPwUvDkdMqThU7kxyZv0wBSuTsFfQu8fHZ2x9c8/2PraLN+6iPHeZUTMa1go26JXUgoriLiOUmEVuBgNDVZvBm+9gKTi9sJmx6sjfd87eufDSzi/6EfATejb0EJDCczusBlwdVavHz+ZGwlr1zwAwDg40gb8qfFS/hdH79o+n7HencB1DbU/uwTWJ2MavD58k+PToXgW+U+qCkEEeAEdbiNhh25deuQlxnq/gwn49kKnTmgXXpJX0AtpAQpReRw8NFW1KZfD89+/5al5yNoWbm4zGVt4qXlHHiKEIhQnBQz++DPVm09WErRZLkg54jSGt4P9Td3cMp5tInSq3BD0LPAESlh5IBlCtdWeRA41g68lkQYqr7pdxDNNhNZbnYy5eAw8kLyZSw2KyqfAh9FyMxGp+t5JPGf1hXqhrfPoFfTnwEQYGGoUMHjPuuqE28FHkl01OZlZC3RSRdovl0mhR4A7mJX/U8oz1H2RDW5bz8qv7zwL3AEOo+vB/ho8WZZqkYhaAk+iJTR0IfQM8gdwO/gCo2XCh4ZSAjI/6uM9yh5wGfI+sDf+oA9nR3v3H9686wpKucfAmS3LpQ4Dn0BPTHbazDALaC6j5l8k4jyBKAwMZqF2vjvt4ZsBVgO/w1hA8/Z/nsre6TmIBWTV+sruww7gRFjxVEc8XWxsxbKzrN5YkeYCX2lM+kTIEFsa9gEnOsXpbnM3Kxnbf5Uoov+m+tpirKS+IEybgKySmQqJepEpoSVwK7AKXY8eqc2TahTT7YGsj57MptYQXv9EHgCOUCw+Cjwe3wuX0QOAvAZeyIzn1rV+NtqPEeTzvejc+F4RmejCAV2GELyE7uniVWIheC/6ZWAb+vH43nPg0W5CqKu/Uvr8WoCF4P3oLZk1POtVIrtn/AvYAOwnRISVT0+/AAAPrQHoR9aBn6Wy6TRzyryoeKmMDqN7gV9C+VnImXzHmXYBAP59DYRZ4MUr0eXgB5FrqGyn96GzYvgxZAI8g76MHgSG0GNAqVmXnXYBDYL+thqg+i8GBXRGvBNxCS0CRWb2lDg/Rvhw59Z+83gjHv8F6L5jjOeM33YAAAAldEVYdGRhdGU6Y3JlYXRlADIwMjAtMDEtMTBUMTY6MzU6MjErMDA6MDD6q7LOAAAAJXRFWHRkYXRlOm1vZGlmeQAyMDIwLTAxLTEwVDE2OjM1OjIxKzAwOjAwi/YKcgAAAEZ0RVh0c29mdHdhcmUASW1hZ2VNYWdpY2sgNi43LjgtOSAyMDE5LTAyLTAxIFExNiBodHRwOi8vd3d3LmltYWdlbWFnaWNrLm9yZ0F74sgAAAAYdEVYdFRodW1iOjpEb2N1bWVudDo6UGFnZXMAMaf/uy8AAAAYdEVYdFRodW1iOjpJbWFnZTo6aGVpZ2h0ADUxMsDQUFEAAAAXdEVYdFRodW1iOjpJbWFnZTo6V2lkdGgANTEyHHwD3AAAABl0RVh0VGh1bWI6Ok1pbWV0eXBlAGltYWdlL3BuZz+yVk4AAAAXdEVYdFRodW1iOjpNVGltZQAxNTc4Njc0MTIxrUCUoQAAABN0RVh0VGh1bWI6OlNpemUAMjUuOEtCQjb8aXgAAABMdEVYdFRodW1iOjpVUkkAZmlsZTovLy4vdXBsb2Fkcy81Ni84YnZzM2FWLzIxMDcvZmlsZV90eXBlX3B5dGhvbl9pY29uXzEzMDIyMS5wbmc7vTyVAAAAAElFTkSuQmCC;" parent="Vt5023jZ4tZFl-p4LbUd-23" vertex="1">
          <mxGeometry width="40" height="40" as="geometry" />
        </mxCell>
        <mxCell id="Vt5023jZ4tZFl-p4LbUd-35" value="" style="group" parent="1" vertex="1" connectable="0">
          <mxGeometry x="707.88" y="395.14" width="78.75" height="60" as="geometry" />
        </mxCell>
        <mxCell id="Vt5023jZ4tZFl-p4LbUd-15" value="sim controller" style="text;html=1;strokeColor=none;fillColor=none;align=center;verticalAlign=middle;whiteSpace=wrap;rounded=0;" parent="Vt5023jZ4tZFl-p4LbUd-35" vertex="1">
          <mxGeometry y="40" width="78.75" height="20" as="geometry" />
        </mxCell>
        <mxCell id="Vt5023jZ4tZFl-p4LbUd-26" value="" style="group" parent="Vt5023jZ4tZFl-p4LbUd-35" vertex="1" connectable="0">
          <mxGeometry x="19.370000000000005" width="40" height="40" as="geometry" />
        </mxCell>
        <mxCell id="Vt5023jZ4tZFl-p4LbUd-27" value="" style="rounded=0;whiteSpace=wrap;html=1;" parent="Vt5023jZ4tZFl-p4LbUd-26" vertex="1">
          <mxGeometry width="40" height="40" as="geometry" />
        </mxCell>
        <mxCell id="Vt5023jZ4tZFl-p4LbUd-28" value="" style="shape=image;verticalLabelPosition=bottom;labelBackgroundColor=default;verticalAlign=top;aspect=fixed;imageAspect=0;image=data:image/png,iVBORw0KGgoAAAANSUhEUgAAADAAAAAwCAYAAABXAvmHAAAABGdBTUEAALGPC/xhBQAAAAFzUkdCAK7OHOkAAAAgY0hSTQAAeiYAAICEAAD6AAAAgOgAAHUwAADqYAAAOpgAABdwnLpRPAAAAAZiS0dEAP8A/wD/oL2nkwAAAAlwSFlzAADsOAAA7DgBcSvKOAAABqNJREFUaN7tmluMVHcdxz//mdllCQFs3VIFREJMGg1SLSJrpKFWSoxNk0YbbwQjvmhC692gYBqTJirVUmNrYxofgPYBExsqktiYYmOo1d0WLZbWFmuAwppyabite2FmzseHOTN7zsyZ2Zmpi33oeTlzcv7n//98f9dz/rvw5vH/PcL/aqIbvvsoo5TJkSsIPWgO7I3PE2gJuAREg3d/6o0hYGDLHiAU0MXgCvRacIl6FRURfWAeHQXH0ePgP9Cnwb+a6zmXi4r85Sefu7wCBrbsRXMhhPIK9EvgGnABmlcAQVudR9GD6C7wIeDs4Lb1l0fAwJbfVkAIa8EH0XdWwdqET57LwG70duDk4L2f71hArivZhHngXRV4LiL3CRvB/e3BxzaAPHobuomonF/5te2XQYCCvgt9Twy0A/kGUfQA+i3w9NTwievK79sILKmqmmYPCNhTsR6IwwRKEIHR6ThhO4EH7Ufmd8FPoSsP1KQI+gWNDgKHgdvBhR3C043luxYgEqpLVkCuAX+FXATnofmO4bVrCV15wMTvGGA2OLsryyvd43cjoHIcB++p5EI1BJKwsatgLroOnNMS3u4FNO0DA5t/A4QcODe2MKYBokbLpqwdge8AHkEXtIZ3rByFjz3z7V1jjPWsqLlZJ8Bn0BeAUlj6+NQeGNi8B0MI6FJwA7ga6J8Mmybn2kVqZAG9egp4EIrlIMX8J4FNWJtL9BSyE73b5z56Jrx3X3MBA5v3UBqboDBzxq3gNmBxXCqbxi91IHVeoB341NjUswTkavCb4HwiN3rwI+fDtU/UmBv6QGHmjBvB+yrwdgCfce4EvkFMwqOaQz8NrCMEfPaGRgGVmKcP3Ags6Az+dVp+8uxkFNZ7hQK6gah8VTJu6zzgcuDGhsWmhM9qTB3BX1LGkHzq2WR1qlwvQ1cl8y4HsHLT7uqANehbbCMUWsLbDJ5mzwzngscpM3vS6inw6rheZBUEPHD9pICQCwA9wPLphc+ey4i9Qxt3jyLvTsV/cq7qmrqUqNSX8kBlGeeIiy43PPrHkyN9P+vtKX4AeX/NTdatZ22OBcic6ryFycmZBVzxOuDjTjclvOgl8Bjy6wvjvQ8eu/OhESYKXyXZsVPwqbyaXSk2JAQks6J9+BL6Ivj7Yjm8WCrnLhoREXdsyfIKASwVy+HVcyMzXv7iTftO//D6o4uZKPwUvDkdMqThU7kxyZv0wBSuTsFfQu8fHZ2x9c8/2PraLN+6iPHeZUTMa1go26JXUgoriLiOUmEVuBgNDVZvBm+9gKTi9sJmx6sjfd87eufDSzi/6EfATejb0EJDCczusBlwdVavHz+ZGwlr1zwAwDg40gb8qfFS/hdH79o+n7HencB1DbU/uwTWJ2MavD58k+PToXgW+U+qCkEEeAEdbiNhh25deuQlxnq/gwn49kKnTmgXXpJX0AtpAQpReRw8NFW1KZfD89+/5al5yNoWbm4zGVt4qXlHHiKEIhQnBQz++DPVm09WErRZLkg54jSGt4P9Td3cMp5tInSq3BD0LPAESlh5IBlCtdWeRA41g68lkQYqr7pdxDNNhNZbnYy5eAw8kLyZSw2KyqfAh9FyMxGp+t5JPGf1hXqhrfPoFfTnwEQYGGoUMHjPuuqE28FHkl01OZlZC3RSRdovl0mhR4A7mJX/U8oz1H2RDW5bz8qv7zwL3AEOo+vB/ho8WZZqkYhaAk+iJTR0IfQM8gdwO/gCo2XCh4ZSAjI/6uM9yh5wGfI+sDf+oA9nR3v3H9686wpKucfAmS3LpQ4Dn0BPTHbazDALaC6j5l8k4jyBKAwMZqF2vjvt4ZsBVgO/w1hA8/Z/nsre6TmIBWTV+sruww7gRFjxVEc8XWxsxbKzrN5YkeYCX2lM+kTIEFsa9gEnOsXpbnM3Kxnbf5Uoov+m+tpirKS+IEybgKySmQqJepEpoSVwK7AKXY8eqc2TahTT7YGsj57MptYQXv9EHgCOUCw+Cjwe3wuX0QOAvAZeyIzn1rV+NtqPEeTzvejc+F4RmejCAV2GELyE7uniVWIheC/6ZWAb+vH43nPg0W5CqKu/Uvr8WoCF4P3oLZk1POtVIrtn/AvYAOwnRISVT0+/AAAPrQHoR9aBn6Wy6TRzyryoeKmMDqN7gV9C+VnImXzHmXYBAP59DYRZ4MUr0eXgB5FrqGyn96GzYvgxZAI8g76MHgSG0GNAqVmXnXYBDYL+thqg+i8GBXRGvBNxCS0CRWb2lDg/Rvhw59Z+83gjHv8F6L5jjOeM33YAAAAldEVYdGRhdGU6Y3JlYXRlADIwMjAtMDEtMTBUMTY6MzU6MjErMDA6MDD6q7LOAAAAJXRFWHRkYXRlOm1vZGlmeQAyMDIwLTAxLTEwVDE2OjM1OjIxKzAwOjAwi/YKcgAAAEZ0RVh0c29mdHdhcmUASW1hZ2VNYWdpY2sgNi43LjgtOSAyMDE5LTAyLTAxIFExNiBodHRwOi8vd3d3LmltYWdlbWFnaWNrLm9yZ0F74sgAAAAYdEVYdFRodW1iOjpEb2N1bWVudDo6UGFnZXMAMaf/uy8AAAAYdEVYdFRodW1iOjpJbWFnZTo6aGVpZ2h0ADUxMsDQUFEAAAAXdEVYdFRodW1iOjpJbWFnZTo6V2lkdGgANTEyHHwD3AAAABl0RVh0VGh1bWI6Ok1pbWV0eXBlAGltYWdlL3BuZz+yVk4AAAAXdEVYdFRodW1iOjpNVGltZQAxNTc4Njc0MTIxrUCUoQAAABN0RVh0VGh1bWI6OlNpemUAMjUuOEtCQjb8aXgAAABMdEVYdFRodW1iOjpVUkkAZmlsZTovLy4vdXBsb2Fkcy81Ni84YnZzM2FWLzIxMDcvZmlsZV90eXBlX3B5dGhvbl9pY29uXzEzMDIyMS5wbmc7vTyVAAAAAElFTkSuQmCC;" parent="Vt5023jZ4tZFl-p4LbUd-26" vertex="1">
          <mxGeometry width="40" height="40" as="geometry" />
        </mxCell>
        <mxCell id="Vt5023jZ4tZFl-p4LbUd-12" value="" style="endArrow=classic;html=1;rounded=0;" parent="Vt5023jZ4tZFl-p4LbUd-35" edge="1">
          <mxGeometry width="50" height="50" relative="1" as="geometry">
            <mxPoint x="39.120000000000005" y="60" as="sourcePoint" />
            <mxPoint x="39.08000000000004" y="80" as="targetPoint" />
          </mxGeometry>
        </mxCell>
        <mxCell id="Vt5023jZ4tZFl-p4LbUd-43" value="" style="group" parent="1" vertex="1" connectable="0">
          <mxGeometry x="556" y="475.14" width="96.25" height="103.13999999999999" as="geometry" />
        </mxCell>
        <mxCell id="Vt5023jZ4tZFl-p4LbUd-39" value="" style="rounded=1;whiteSpace=wrap;html=1;fillStyle=auto;dashed=1;container=0;" parent="Vt5023jZ4tZFl-p4LbUd-43" vertex="1">
          <mxGeometry x="5.6200000000000045" width="85" height="80" as="geometry" />
        </mxCell>
        <mxCell id="Vt5023jZ4tZFl-p4LbUd-40" value="Broker (Kafka)" style="text;html=1;strokeColor=none;fillColor=none;align=center;verticalAlign=middle;whiteSpace=wrap;rounded=0;container=0;" parent="Vt5023jZ4tZFl-p4LbUd-43" vertex="1">
          <mxGeometry y="80" width="96.25" height="23.14" as="geometry" />
        </mxCell>
        <mxCell id="Vt5023jZ4tZFl-p4LbUd-42" value="" style="shape=image;verticalLabelPosition=bottom;labelBackgroundColor=default;verticalAlign=top;aspect=fixed;imageAspect=0;image=data:image/png,iVBORw0KGgoAAAANSUhEUgAAAEgAAABICAMAAABiM0N1AAAABGdBTUEAALGPC/xhBQAAAAFzUkdCAK7OHOkAAAAgY0hSTQAAeiYAAICEAAD6AAAAgOgAAHUwAADqYAAAOpgAABdwnLpRPAAAAp1QTFRFAAAAAAAAAAAAAAAAAAAAAAAAAAAAAAAAAAAAAAAAAAAAAAAAAAAAAAAAAAAAAAAAAAAAAAAAAAAAAAAAAAAAAAAAAAAAAAAAAAAAAAAAAAAAAAAAAAAAAAAAAAAAAAAAAAAAAAAAAAAAAAAAAAAAAAAAAAAAAAAAAAAAAAAAAAAAAAAAAAAAAAAAAAAAAAAAAAAAAAAAAAAAAAAAAAAAAAAAAAAAAAAAAAAAAAAAAAAAAAAAAAAAAAAAAAAAAAAAAAAAAAAAAAAAAAAAAAAAAAAAAAAAAAAAAAAAAAAAAAAAAAAAAAAAAAAAAAAAAAAAAAAAAAAAAAAAAAAAAAAAAAAAAAAAAAAAAAAAAAAAAAAAAAAAAAAAAAAAAAAAAAAAAAAAAAAAAAAAAAAAAAAAAAAAAAAAAAAAAAAAAAAAAAAAAAAAAAAAAAAAAAAAAAAAAAAAAAAAAAAAAAAAAAAAAAAAAAAAAAAAAAAAAAAAAAAAAAAAAAAAAAAAAAAAAAAAAAAAAAAAAAAAAAAAAAAAAAAAAAAAAAAAAAAAAAAAAAAAAAAAAAAAAAAAAAAAAAAAAAAAAAAAAAAAAAAAAAAAAAAAAAAAAAAAAAAAAAAAAAAAAAAAAAAAAAAAAAAAAAAAAAAAAAAAAAAAAAAAAAAAAAAAAAAAAAAAAAAAAAAAAAAAAAAAAAAAAAAAAAAAAAAAAAAAAAAAAAAAAAAAAAAAAAAAAAAAAAAAAAAAAAAAAAAAAAAAAAAAAAAAAAAAAAAAAAAAAAAAAAAAAAAAAAAAAAAAAAAAAAAAAAAAAAAAAAAAAAAAAAAAAAAAAAAAAAAAAAAAAAAAAAAAAAAAAAAAAAAAAAAAAAAAAAAAAAAAAAAAAAAAAAAAAAAA////ppX2IwAAAN10Uk5TAAUYHxkHHGqs2OHZsXMhA0rJ/f7TWQZa6/NsATPg9u716kgEnptEMkCRuQ0s4/x/dPnxPGLQEsVvkJifcYuWomXGDLp8N/gCYEMnOC0IroIqE3rswhEgxOXyzpJH5/RcUNTodwqAiG3kcjbi7V+apB0aIi7phFjv+lUez6ppqbzmq34lhiiwk9qJYU+BoUbLF3b3VjvdjYezKyNeTsq+jBtkst9rCdzDC6ic1Q8VptExl01BY3j7Z9I/wFS1u10WJH2tlI6gnc11W0tJDoo6ZkW4FMeFefCZtt5XyNfss/PzAAAAAWJLR0Te6W7imwAAAAlwSFlzAAE69gABOvYBOrFXOgAABKpJREFUWMPtWPtfFFUUnwWW1bV2XRbIbdgHgm4PWIQAacseiMwGbLwKdolHrgoMiK4CQQUZUCSlaSjZihplGWkFZhpZ9ranJr3Lmv+lc+ZeZ5ZPv1xnP30+/eD5Zc+5O+e799z7PY9Zjrsm/wPRxcUn6GOHSTQsWmxcct31pthgzEstSRKKNTklNRagG5ZJV8R2I68dJ82Om3E4XVb4TF+uGScjE/xdK1a6b7rZBtott2oFysqWJE8Ono1uVa4k5d2mFSgftlGQIKuFq0FfpRWoCJxvp7oX9Du0Hved4LyG6neBfrdWoHvA+d5CWS1eC3qJ1tDWAYtKDQJogs8F93cfXeeLy8orCs3sQP77YRvOyqrqsppa0B54kCzX1dQHgukND7kzmJEaneCf1FQQ8MBnc4u8Jjy8nmSNFNqwkRUoo8ilpEjuJp285qtVl1qZq4K+zU6d2kXy8x2dmDWb7SHcVnMXc3B8hdeBebLFLRDkrbLVEa7KSUe6bmM/8e2QJ5IxnlrdPXBovZg1/CN9ktT/KDuQCWMxPkYtH9SBx0nWpA7AF16tQINgPEEZVAL6Dj8zUMWT8HygOwpoiPJnGPS1jPfGj+Q0IIc8yU89jYmW2gtGcqL8nX8U9GfYcPRdO61XSGM3+AX3Vixw1jHchvBsMzDpOSYc/y6Vj5Lk8I4FqLb7eVN5KxJzz14WHOGFceJXS/CsKqgruw8/8vYxbWh/Dz488WJj98oDixWUUpu6x2EdU2BD+PBLEdk4OGSl/W3y0GHa6iby2a4sDXuapY5aCUfQue9lsKdeeXXCePSIWMZYMF/DONRDWIohZRIKvZ4YHy5mQ4GjxvQ8Flbs6gaN5d+PsbwxrdjmN/HENAwA/h1Y+tXmmrEI7FGma1oo/HFM1oOKHXcC7C1Xj8NxXXDLHoNiTiI7j5My+Vb8iOltgRUoggkxUU6trPUyo9/pMHN1Yn1nIHumd5axIZlPouuJd5F1ulN7KJtDY+8lU5Y3bZhmQ6raKXNwtMZ3ekAduDylahdZw1iNWpxSdLaeOaNA5B1bhovNPjYg4f2eqDKyebhtjmSZzfvB1OymEGgzjF1EOHU2l8L0Ww6ZuXAr9qCkXTKbUoKw+iHr1RXu+wihSs99/AmafI06e+mRoSdZgThupB2e7/yUWlj8B+i1f3Z1XWRhOzJEAWEXOacVaBIua26KhPY5fPEFe2gLW3akCdjwJdKHz7cxdxEQIS0Tc8xxvoPEk3oera/WhSOVyNGv4xhx/GI7vf6m06Qkph2VOUXGmmAKI47uG4fCx/4DJB++DaldpJK1zn2Xh8mVbbFjcrjIVMV/X0BHv/Y21oFN7u61JSMXtouYK6uryXJYPGt3BiwXs5gr0g/QlccvYb3nW6DRO+bpOr/R5C67wAzDcZdgG/VkJp7+EfRhdteFIoLzRarH9ApRFDUA4UtNplYgfM2aIxXnp59BF7WGFoE08/yCaan/tV+SftuvFciMrW18d2P5/O84If3B3O7/JbN/yhNRcBwLdM+8ZhyOu5yu5ENwMIbXdU5o/ItOVTOXNbT9aNk2OPS3ccmoWBcbDAr+yRLT3xnX5D+TfwCDj8UCCPOGKAAAACV0RVh0ZGF0ZTpjcmVhdGUAMjAyMC0wMy0xN1QwODozOTo0OCswMDowMF3EDVYAAAAldEVYdGRhdGU6bW9kaWZ5ADIwMjAtMDMtMTdUMDg6Mzk6NDgrMDA6MDAsmbXqAAAARnRFWHRzb2Z0d2FyZQBJbWFnZU1hZ2ljayA2LjcuOC05IDIwMTktMDItMDEgUTE2IGh0dHA6Ly93d3cuaW1hZ2VtYWdpY2sub3JnQXviyAAAABh0RVh0VGh1bWI6OkRvY3VtZW50OjpQYWdlcwAxp/+7LwAAABh0RVh0VGh1bWI6OkltYWdlOjpoZWlnaHQANTEywNBQUQAAABd0RVh0VGh1bWI6OkltYWdlOjpXaWR0aAA1MTIcfAPcAAAAGXRFWHRUaHVtYjo6TWltZXR5cGUAaW1hZ2UvcG5nP7JWTgAAABd0RVh0VGh1bWI6Ok1UaW1lADE1ODQ0MzQzODiLP2/yAAAAE3RFWHRUaHVtYjo6U2l6ZQAxMy4zS0JCBkwX+QAAAEh0RVh0VGh1bWI6OlVSSQBmaWxlOi8vLi91cGxvYWRzLzU2L2NSbWl3T04vMjI0OC9hcGFjaGVfa2Fma2FfaWNvbl8xMzg5MzcucG5ndwcPpAAAAABJRU5ErkJggg==;container=0;" parent="Vt5023jZ4tZFl-p4LbUd-43" vertex="1">
          <mxGeometry x="12.120000000000005" y="4" width="72" height="72" as="geometry" />
        </mxCell>
        <mxCell id="Vt5023jZ4tZFl-p4LbUd-44" value="" style="endArrow=classic;html=1;rounded=0;" parent="1" edge="1">
          <mxGeometry width="50" height="50" relative="1" as="geometry">
            <mxPoint x="476" y="315.14" as="sourcePoint" />
            <mxPoint x="697" y="275.14" as="targetPoint" />
            <Array as="points">
              <mxPoint x="476" y="275.14" />
            </Array>
          </mxGeometry>
        </mxCell>
        <mxCell id="Vt5023jZ4tZFl-p4LbUd-114" value="" style="group" parent="1" vertex="1" connectable="0">
          <mxGeometry x="426" y="455.14" width="100" height="110" as="geometry" />
        </mxCell>
        <mxCell id="Vt5023jZ4tZFl-p4LbUd-105" value="" style="rounded=1;whiteSpace=wrap;html=1;fillStyle=auto;dashed=1;container=0;" parent="Vt5023jZ4tZFl-p4LbUd-114" vertex="1">
          <mxGeometry x="7.5" width="85" height="80" as="geometry" />
        </mxCell>
        <mxCell id="Vt5023jZ4tZFl-p4LbUd-106" value="Frontend&lt;br&gt;(React on nginx)" style="text;html=1;strokeColor=none;fillColor=none;align=center;verticalAlign=middle;whiteSpace=wrap;rounded=0;container=0;" parent="Vt5023jZ4tZFl-p4LbUd-114" vertex="1">
          <mxGeometry y="82" width="100" height="28" as="geometry" />
        </mxCell>
        <mxCell id="Vt5023jZ4tZFl-p4LbUd-113" value="" style="shape=image;verticalLabelPosition=bottom;labelBackgroundColor=default;verticalAlign=top;aspect=fixed;imageAspect=0;image=data:image/png,iVBORw0KGgoAAAANSUhEUgAAAEgAAABICAYAAABV7bNHAAAABGdBTUEAALGPC/xhBQAAACBjSFJNAAB6JgAAgIQAAPoAAACA6AAAdTAAAOpgAAA6mAAAF3CculE8AAAABmJLR0QA/wD/AP+gvaeTAAAACXBIWXMAAHYcAAB2HAGnwnjqAAAAB3RJTUUH5AscDScOGbsmMwAACX1JREFUeNrdnHtQVNcdxz/n7i4sqLwkitXEiK9RoaZacbUVzaRNkz80pGpsEk1SbWIVbNRUjWmbTpOZJik+iOIjabVTB7XNNNNM0nZ81GikCr4C+Gp9TisCBgEV5LHs4/SPA4LA4j7u7t36ndl/7t69597PPef3+52zv98RGKn3bWACIBaYDSwHIoDVwFagBgksKjTsFoVhLefaAMzAo8BPgMeAqJZv7cAXwHpgD9BMljGQQg9IgdGAkcArqJ4T7+HsWuBjIBdECUhXqEGFDtCG8eDWQMi+wAtAFvCQl7+uADYBW0GWgSBUoEIDSPWaaOBJ4DUgjVbr473cQDGwBvgUqMNkggWH/o8BKTAmwNYC5nstoAJRE7AfWAXkA45g9qbgAMqdANZoaKofDswHngf66NxKNfAnYDOC04AkU39Q+gLKtYGUIEQi8AzwKjBM97u+W/8BNgPbcN+sQIuFrCNhCEgNJytqGK0AxqHceCjkQtmnbOAzpGzAZIKFh8MAUJvbHg0sBTKAniEC01ENwK4WUMeAgMMC/wHljgfNBG73QODHKNf9NYPAdFQlsBPYCOI8SL/DAt8BrbWBBYAEYDoqnkn161rB179R8dNO4LqKnwqCCEgNpwggHWVnJtOKK3zlBApR87vdQKMvvck7QAqMQE0PMoFngTijn9xH1aOmLTkIUYKUbm9AdQ9ogw3cEoRIAn7U8hlo9JMGqHJgG7ARLbIUt71b++QZkOo1MSivlAWMwffpQbjKDZxG2aePgBpPkDoDUmAswLeAJai4JtL7tqUKFlsvL4Jtu1vb86stJ/A5sBY1fbF3BHX3FRWcWOAtYA6elyE83KubaEs0SdG9iTRZqGy8wS17HU63A4T+nU9ISbQlisSoOKSUVDbeoMnZBELz9VK1KE+3ErjRHlJXke4TwAJ88k6SSC2C6UMeZe6IqQyNHUCEZuFaYw1nqi+Td34XB8pO0ORs1q1HmYRGRnI6C1NnMCimH1JKTlZfZE3xTvIrSny9XAwwD7VIt7P9F10BSvANDpg1MyvGzmH5N+bQw2K9czypR28eSRzKU4MmsePCXt488gFfNVT784Y7vA83zw9/kpxJS4iP7HXncHJsfx5JHMZze9+koOKkr+2YgcSOBwO8U3WzYxKHsyh1Jj0sVqSUnT49LdG8PHIaOZOW0Nsa185G+dUgcdYYXhmVQXxkr05tPRzTj8Wjf0CEyQez2Y10ACRJ6zvyjh3o+pHU8WeGPMbrY1/Aao4A/IQkJckx/RkRP9DjJVITBhNv7RXgi9ALkBAkWuO8bEwjM3UG80ZM839eIiXRZiuRJs+QI0xmLDo5hcAB+fJsSKLMkfwybR4ZyVNAuoPYlj4KKSAAKSUPRMXz3oRMbEmpQYWkh0IOCBSkoXEPsvbbi0mOHRDWkAwBBAqSLSmF7ImLdPBswZNhgEBBykhOZ9mY2USYLOhnOfSToYDUDWgsSp1JZuoMtDBccwsJoBp7Lc1uR5ffSSTRFisrx77I1EHpYWePgg5ICME/So/x8aX9CA/zMOXZ4siemMW4vqPCClJIetAt+21WFmwiv7y4W0hD4x5k3aSlDA4jzxYSQEIIrtRVkHlwFWdqLncLyZaUwnsTs0iwxoaFZwudkRYap6ousPxQLhX11d1CykiezMqxLxIZBp4ttF5MaPz9v4d5+/hWGhxNCA9ey4TGwpTpLEiZjslgRxv61gVsOfsp2cXbcUhnl6e0erZfjJtLRvJkQ+2RAa9H0OxysKZoOzvP7+12qCVYY3h3YiZj+4w0DJIx/VcIapvr+fmRzRwo+7JbSENiB7A+/TWGxj1kCCTjBrjQKK27xuL8tZysutgtpAlJKfzatkDN2UJstI21gEKjpOocyw/f27N9f/AUfvbNlzCH2LMZPhdDmNhdWshbx7bQ4PTs2TQ05o96mnkjn0JDhAyR8YBa9Pt/fcbqoh339Gy/SnuZaYPSPa5/36eABHaXg1VFeeSd2+XxLCklfaLiWZg6nWhzZEh6UZgAop1n+4DPy054tEcAVlMEWqD/rXmp8AEEIDTKb1eyOH8NJVUXuoUUKoUXIAChcbr6Iq8XbORaQ7XhkMIPECjPdqWQNwo2UdfcYCik8ASE8lp553aRXZSHw+U0bDE2bAGBwOF2klPyR3Zc2GPYokdIAKn/5v14RCGoa67njYKN7Lt63OuhpmeIpEvyws3mum5PKa+v8v+uhUZ5/XWW/jOHk9UXvYJU66in0WnXJTFZh+QFOPrVWWqaajvdvBCCmqZaDpYXE9D8SWicqr7I8kO5XL1deU9IhddOc7P5NnoQ0gGQiWOVZ9lw6s80Ou0IIe58Gp121p38iPzyosBT8ITG7tJCXtr3NgfLinC4nXe1JYSan+2/eoLVxTtwu52BtdeirjLMbqGKQ7x+IofbyTsn/sD5m6U8O+y79LJEU+doIO/cLj65/AVO6UKfRHzBvtKjFFdd4ImHbDydPJk+UQloQtDktLO79Ajbz+1SQ9r3SNsF1HRusb1UEmci8BtgJj4Vpahs00hzJCZhwiVdNDvtSCF0gtO+KQm4sZgiiNAsCCFwul3YnXY1kH2Pm+pR6cDLgOr2SZye0oCtwHeAxcAUwj4/WuLnS3ChqhZzgD0gGjvWctwrkbw3quxgPqoMIYzjJp8kUYUuHwLbgeveJ5J3hCRNIFwDUdn2s4Eko58uQLWWSq0DLgN+liJ0AoWGIA34KSqXuofRT+qjGoG9qGK7ArwstvOnHCoaZZ9WAOMJe/uEGziOKif/G3Bb/3Ko9tpga435+gDPobLyg124668uAb8FtoG5AtEMmUd9ukAAJZk2WrzHcJR9mgU8YDSRFtWgasPeB84CMnQlmV2CwoQabsuAxwl88wB/1QQcAN4FcRhkwJsO6BPBrUtTBb7IHsDUFlCjCZ19cgNnUGWXf0FV7+iyv0cQNhYQIGQ/lH3KAh4OMpwy4HfAVszyCk59Nz4JzkLd+pYaV0EKyojPQlUR6albwCfAeqT8EoHUc8eF4AJqVVv1YjoqfpqCmsYEomZUHJONimuCuvlS8Jd6N40DlxmQPVET4FdRdfa+TlskcB7YAOQhuYHwvQ4+/AC1qi0s6A/MRQ29fl7++jqwBWVrLgH32QZL7dUWFnwdtaXFLFSdbFdqAP6KimeOAs77d4uujmqzT4+jNnmbTFt1taMFyHrUblM+7ZZwfwACtUEKGiATgB+iytAtKDvzIYJruDF0m8D/ATuCO8+I/Hv6AAAAJXRFWHRkYXRlOmNyZWF0ZQAyMDIwLTExLTI4VDEzOjM5OjE0KzAwOjAwZOE2mgAAACV0RVh0ZGF0ZTptb2RpZnkAMjAyMC0xMS0yOFQxMzozOToxNCswMDowMBW8jiYAAAAgdEVYdHNvZnR3YXJlAGh0dHBzOi8vaW1hZ2VtYWdpY2sub3JnvM8dnQAAABh0RVh0VGh1bWI6OkRvY3VtZW50OjpQYWdlcwAxp/+7LwAAABh0RVh0VGh1bWI6OkltYWdlOjpIZWlnaHQANTEyj41TgQAAABd0RVh0VGh1bWI6OkltYWdlOjpXaWR0aAA1MTIcfAPcAAAAGXRFWHRUaHVtYjo6TWltZXR5cGUAaW1hZ2UvcG5nP7JWTgAAABd0RVh0VGh1bWI6Ok1UaW1lADE2MDY1NzA3NTT8ZyEjAAAAE3RFWHRUaHVtYjo6U2l6ZQAxNTA1NEJCdQOttgAAAEZ0RVh0VGh1bWI6OlVSSQBmaWxlOi8vLi91cGxvYWRzLzU2L0JPRENKOXEvMjY5OS9uZ2lueF9sb2dvX2ljb25fMTY5OTE1LnBuZy8UfNgAAAAASUVORK5CYII=;container=0;" parent="Vt5023jZ4tZFl-p4LbUd-114" vertex="1">
          <mxGeometry x="17" y="7" width="66" height="66" as="geometry" />
        </mxCell>
        <mxCell id="Vt5023jZ4tZFl-p4LbUd-147" value="" style="shape=image;verticalLabelPosition=bottom;labelBackgroundColor=default;verticalAlign=top;aspect=fixed;imageAspect=0;image=data:image/png,iVBORw0KGgoAAAANSUhEUgAAAEAAAABACAYAAACqaXHeAAAABGdBTUEAALGPC/xhBQAAACBjSFJNAAB6JgAAgIQAAPoAAACA6AAAdTAAAOpgAAA6mAAAF3CculE8AAAABmJLR0QA/wD/AP+gvaeTAAAACXBIWXMAADsOAAA7DgHMtqGDAAAAB3RJTUUH5AYMCi82VKaRDgAADsVJREFUeNrt23uU3VV1B/DP+c2dSQiERCCQCGqFZBLlYaW+1rLV1tdCtIpawBc1E1Gh1BeKWlCg4ouqKKjUKmSChSJStRWtj6VtsVWX+IQiJBOJgPIIJjUS8pp7557+sc/NvTPMzJ07GPyj7LXuuvf+Hud39j577/Pd33N+PCQPyf9rSQ+0gaGROvRhL8zBKHY2ao36wOiAS1f0PaD2XzMyZkdu6E9VDXPLM3ZhB8aGB/t/PwYYGqnLDCT+BCfgCOxdOvZLfBP/lRlJs+hoMWyFZXg6noFHYh6242e4SvJtjA4vm50hZmWA0rl98Fa8CQsmuSzjDnwOa3AjcjdDlLYTVuBVeGlRfLK+3ou/x/tw72y8oWcDDI3UVWMpNfvyGXgvamhiY1F4PzxcuGtLbsdHcBl+M1VHi/IPK4q/AY/uOL0Td2FzaX+x8JAxvJt8HqmrgX8nBsDR+BIOFi7/SVxaDLAAh+PPcawYPWjgKzhXTj9VZS23XTVSNxbaHIHz8PxiWCKcvoJrcBO2YAlOxqki99yF43DdHjXA0Eg97sjOxTnl8KU4DbtaD++I38eWkTxBO0xG8PZiwGY5VuF5+EC5h3Dvq/Bx0o3k5oT25wivOrVcf9Go/MY5ktU9GKHqyVyQzcezy79N+HSn8jA82G94sL8p4v40rMIN5fRguec1YpRr5fylHcrfJEb4NNwwPFhrTmxfzARrSh/giQPSvrlHdXo3AIcWJYhMfONUFw4P9stJPfEFnCjcuIkD8EG8TSTSC7ConPsKTkhcnSv1Li79s/JpGfbQXpWp9XqDSHL7lN8bqtzc1kxT23HNst1uuxavFhl7Jebj3HJZv0hm/yjC456ZuPHWWmPb/EbtZjFN7i0SaE8yGw+YL4AP7GymykwST7nm1zgdnxCj3V8+TVyMN+KembY3v1GDDeVQX+nbHjfAXrO8D6Sc7yudbnYcbuIXKeWts2hyW4cuez0YBtg1ofMzkqGRUSQ5pZfgbG380Cy/z8o5HZ8lqyLLz1RaSjcFVtjjBrhXxGvcn7JVa8emvSGmrYT8FPwd9i8d/icBjprl2AeS/NS8+56pZeXIaOvnw8v3WOlbTzKbJDjaYYCD5NSfq+ZMhuxRIvO30N01eLOAzAvw4nLuQ3gZbp2usRQQph+HdRigJ9dhdh5wp/bce6AAJFNKR91wDv64HP6xmAI3CWj7dny/nHsK3o19unlBefYB5fem0rc9boCNAp4SI/aI6ZRPMV+cjFeWw/eIHHCriN+9cBveVdomCqBT5Jy6GGGJNtS+veP+GcssQiBvJ60Vo7l/McLNq9aPppxTvxjtR4g5eVEeM4i/Fu6qfL8NZ0xoOGGg45q3SmkORoZG6pvwW/xKxPkuETqHCS8MA2Q7eq1uejLA8GC/oZF6Fu56cunw8dg/53Q4HieqtEOKIfq1MUNLHoanzeBxB+E92rG9QxRbGwX6+wkerx2C10uae6QYGlo3Kjez1FfNF5XeCaLI6SsdTLqHU718dpVPw/hiqFYMOqcYbqBLe7k8u1a+LxLF043z5ta2bdtRt2Z5tya6GKCD7hrEc/CiYvX5k9w7iv8V8bxRTE9PKOe2iBj/iRjJ7cbPJn1F6XkiJyzF+cKb4H9EgjtIzCYt75pokHvxQ1FpfgtrdWGjJjVAUbyGP8IriuIHT7i+qT3qXxbw9pfFAA/DlXhqOX+hKHoaM2GEUpNcOVOEQMJ/i8S4XeScR4q64vmT9KVljDvxr7gcP5jq2eMMMLS+Lo2RK0txCv5SVGkt2SHi7ztl1E4t32tysipl+YCtO2yav9dZgthIZdRfhNtmGp9lAA7EZ/FnRcEzs3x+kuQspeRCvF540YUipJ6Go4QntWSTAFwX52RdysbVLmnCQ2uCWTlXxHpL7hAu9Xl8J2ebU7Ic3yijMSJC5DaRCK8RM8F2vBZXpJStXhYxOXRLXX2spj81KtiwoNZcsaXhH0rHVq2vy1HYP7d40gJRP7xQlN+PxNcFb/jL8uy1WChwxPHl2CEdOqwV+OLqTm+oOpSfK5DZJR3K3yVYl2OxSvKl4cH+zSlYoVtwbbnuMDxzYFeNmB1a2ODfBBdg9bIBQyN1QyP1PmOO7tc4XbZGdtmhWxpvGeUJQyP1vqGRutVthvdbglQlav3XD9SaipJLy/Hv4+cwPNi/BV8rRn8uPlp0UIz1SbwFc1v4IgW9naokv1HU6nOLO31VkJ4/4P7TS2ngRBFjNXxRMLRXCnxwN16C75bpk6jZTyuGXmy8bCyu/DHc13HP40VSO0SgxpfjJAGsxkQuuGyK/lV4Et6JY0S47hQJ+QI0W0jrGcXS+4s4v0jwc1u6MLiHFIsfLmaA2/GH5ZKPyk6XZMhJStkZIrFNlQzq+NuUvS+X+7b0b7GwvvAcbfLkepGQDxCzwzG4cwZM8zuL8ecUQ56Er7Zq6FOK8rmM4jnTKb9bkl/hX8q//TqU/wUukdrrACk7WqwhTNdoP07LydFEslpYX0gwRTeXax6njf+/mtL0+L88/zfFABcXHfcvOs+rRNZ8ern+J/iwCSTnlA1HorpGMD2dcmWjNvazGIHdZevTBHbvJktEsrNy7e57N4jc1Ml53o2r8oSsPo0RdohK86fl8FNwZCUAS4tK+lHK7uwRT/9YZOTOzq6pNfrKgyukSsTyTOXQlFJVVePots9jXcc112ozzTOVOwVmUXR+eGU8FkipIvfC9yRjxbotabE8RbLxAzdDyfe7L49v18S+z0qqYpUWF/f4ZrYk9dJsdqRY1GjJUqyUmoZG6mphzaa2681Ebs00R0fHOpmhl2qvG8Cf6s2riPA6tvzeirsqkVW/XQ4ejXdgr25kRMf552vTUi15mVytgE8v382XfFvEbTe5W0BYlx+xe3lxqVg86ZRFeGnV7E6fdeCcNxQd4TrcUAn3vVhAxoTXCRi73wwYmSX4i/J7s0iiBDB6HalNaKT0IzHPT9doXYCVH7Y6HtsCvALLyzXrRXEFz2pW9zP+ZMovxFliFkqlrxdje1U6d62Yn7eLefJNGMaTV62rV9MY4qnaqPFagbLuKf9PJD+Z1oyRMz6OvzW5J9wjgNeHdSyj52bjcQLstIz8ZgHB4TF45lSKD62vV6IivRR/U7xgJy5IJXGnDivNEcXFWcViBDq7TKC9myRjw8v6O8vkS8VS9hhem3JzdU7VBaWTBCpchZ0dyK5P4IXjtJeybhV44sdK+Vqu7S9e01oAXd1M1clVbr689KtPcACvVPB9xzNWCHJ1SDtEtwpi9oOtPk0shvoEO3u2WKpuSau0/KKAxlsER/ANUZ93FkOPFdD1MLFoMYSrM9aUUT355rot+1f2+W2u5Gzj4lrz4DsaLnlMWUZbV2/l92OLEfcVBdlxIjweXZ69tDzz2ZL1sv0E9H1B+RzcocNI8fIrdRRD4/L9qvV1zSYpWSrC4Hhtzo0IkevFAmZrh0gNw0l+dZZyzFbpzQJ0VKJYebFp4Opk7itqhau06bP3ZemdKebHJPiHU7XZoHuLwY4wfoVoE/4ZFzX73NzXYPXyScrhSTrQhycWFz5G4P7O68e0+b6rcUUZpQ2iHr9cG2GeL6Uz5dyVs4tn50R6l8D/qXjdCQJxPqr05eUi/ChW72imRYh8HavLIHQnRKYxxKCAp88Rc++CSe5t4D5tSmyR9jz9a5GE1pqaEhvQpsRW4P3aZMx1xbhL8Aei7uifROmtwkO/iS+Qbyb1TolNlFXrRo0t6Ffd29hbuNirRd2fihIzQWWj2qToqAdOinauK2Yxa12CG3Nubk0pGR58gKToZFK84jX4VDn0GZG9jxJMzUEi+cwzOS3eq7Ro8W2C/dkoyu4bxBa6N5TrzsCHeqXFe1oXCPIkpyS12N5dIqt+Tc6pLGTMFzG6UJStRxWDHVTu+Y3Ji5iEI7U3OdwjRvT68ntLMcB9pNFSLBwrytoBUSanoZF6TzvFel4ZStI8AUCI2N4Aw8sHsgAZO8txQyN1/Y18db2WNotV4X7h/h/Av2t7R0NsuLyi4/+FkvfLk+8tLJ54qwBHS0RynKe9X2BGMpu1wQO1Ob/bTLMgOTzYr15LBGC6shw+SKDBR4iEuKP8frc2TfZ5fHwq5TvkdkG+KG0cqEeZjQEO1s7Om0QYTClFga2CZfpuOfwkgcYOEBn9fO01hB8JNDqTnZ+7tFeqFxkPfGYks9kf0JnY7ibXpRnZ8VYBnK4QSO44Edc7BVAiYvwM3NK9uYxUVxhh7dWlnmQ2HrBvhwGaJMPLprfj7pFM6Xui3N4skt6rRPVZieR4Vk36j2wmNNfuKa4Vgn2lb3vcAHNnc1+pCGXNz4l4b5R2Wvt9Pyilyxvy7pphhtJioypdNmv8rgyw0yw2SbUkqea7/zpjwmI597zNTaw18HvaJDW3v9GY0a6uMm0dIBZfThcu21oyrwRn/yEsmgERU6bYRHvPUcODtElqi5hr5+LQeq3WeoFhUlm5vi4Ft7lczP8vKArfJ1ZnRsUeofkCYi/GO1auq99UVTqXye4n9VreW5sn3KbNFM1YZuMBGwQtpTz88KkuHBqpq7L+ovRnReavxCrS2XhPiimwtWGqEtvsr0rJi3M20MUbHtNhgBHtXaN70ADZb/Gf5d8isRA5p7OjZRG0wmNzIMDPaK8a3YJTxfJ2PYfrfkrA5bXlmiNEcfMRHDm0fjwt18FgnaSNSb4vN3sOgdkWQ08SDNFikYU/JiiqO0WpvEJwdSdq7+IaE2Xq2RXXjWkzRB3KHSV4wWO0w/NXgtD4mlgY2VKee5IgbeaJFeAX4gcPyhsjpSA6U0DaPt1fmblDjPInsHmsj88cNiW+Xyi84a9E7d+SqV6ZaeC8XKXzUs6515enHshLU/sKyHqKyQFIi5X5clH+p3TfxbUy3kZLVcT2KSIndHtp6r3Y+qC8NDXBCAN4lli1OUzMydtF+fq9onzXjUrTtF8J4vN5Yl/i4vKMbaIIulKQo91erPjdG2BCR+/34qT6fXVz9jW89IHxIUM/L/uWkgkvTuYd3eiuh+QheUi6yv8BwLoiXWLsZiIAAAAldEVYdGRhdGU6Y3JlYXRlADIwMjAtMDYtMTJUMTA6NDc6NTQrMDA6MDDi4yA7AAAAJXRFWHRkYXRlOm1vZGlmeQAyMDIwLTA2LTEyVDEwOjQ3OjU0KzAwOjAwk76YhwAAACB0RVh0c29mdHdhcmUAaHR0cHM6Ly9pbWFnZW1hZ2ljay5vcme8zx2dAAAAGHRFWHRUaHVtYjo6RG9jdW1lbnQ6OlBhZ2VzADGn/7svAAAAGHRFWHRUaHVtYjo6SW1hZ2U6OkhlaWdodAA1MTKPjVOBAAAAF3RFWHRUaHVtYjo6SW1hZ2U6OldpZHRoADUxMhx8A9wAAAAZdEVYdFRodW1iOjpNaW1ldHlwZQBpbWFnZS9wbmc/slZOAAAAF3RFWHRUaHVtYjo6TVRpbWUAMTU5MTk1ODg3NO7epggAAAATdEVYdFRodW1iOjpTaXplADM3NTc1QkLMfzBYAAAAT3RFWHRUaHVtYjo6VVJJAGZpbGU6Ly8uL3VwbG9hZHMvNTYvTnZ2Vm9RNS8yNDE1L3JlYWN0X29yaWdpbmFsX2xvZ29faWNvbl8xNDYzNzQucG5nq4LHcwAAAABJRU5ErkJggg==;imageBorder=default;imageBackground=default;strokeWidth=0;" parent="Vt5023jZ4tZFl-p4LbUd-114" vertex="1">
          <mxGeometry x="53" y="43" width="30" height="30" as="geometry" />
        </mxCell>
        <mxCell id="Vt5023jZ4tZFl-p4LbUd-115" value="" style="group" parent="1" vertex="1" connectable="0">
          <mxGeometry x="426" y="325.14" width="100" height="110" as="geometry" />
        </mxCell>
        <mxCell id="Vt5023jZ4tZFl-p4LbUd-91" value="" style="rounded=1;whiteSpace=wrap;html=1;fillStyle=auto;dashed=1;container=0;" parent="Vt5023jZ4tZFl-p4LbUd-115" vertex="1">
          <mxGeometry x="7.5" width="85" height="80" as="geometry" />
        </mxCell>
        <mxCell id="Vt5023jZ4tZFl-p4LbUd-92" value="Server (Node.JS with Express)" style="text;html=1;strokeColor=none;fillColor=none;align=center;verticalAlign=middle;whiteSpace=wrap;rounded=0;container=0;" parent="Vt5023jZ4tZFl-p4LbUd-115" vertex="1">
          <mxGeometry y="81" width="100" height="29" as="geometry" />
        </mxCell>
        <mxCell id="Vt5023jZ4tZFl-p4LbUd-94" value="" style="shape=image;verticalLabelPosition=bottom;labelBackgroundColor=default;verticalAlign=top;aspect=fixed;imageAspect=0;image=data:image/png,iVBORw0KGgoAAAANSUhEUgAAAEgAAABICAYAAABV7bNHAAAABGdBTUEAALGPC/xhBQAAAAFzUkdCAK7OHOkAAAAgY0hSTQAAeiYAAICEAAD6AAAAgOgAAHUwAADqYAAAOpgAABdwnLpRPAAAAAZiS0dEAP8A/wD/oL2nkwAAAAlwSFlzAADsOAAA7DgBcSvKOAAAC7dJREFUeNrt3HuwnGV9B/DP8+7JHQiXiFzsQClKNlBLLtRSgQ7TqTJtYdpy6TittEVGq0ArlLYoOWFk40yKFkSFsbZQoC1Cqx1aRaFOvYFWNHugWBMuEhQEogRIQkJyLrtP//jtevZsNid7bjkHzW9mZ87uPu/7Ps93f/fLYR/to320j6aP0nQ+vPJQWaqROQhvximNr+7H1/ESdb3LH/3ZA6hSLSPNIb8Fl+FNmNf4egcewHW4F/29y9f/bABUqS6WKZK0An+O38YBu1m+Ff+JG/Bt1PY2UHsNoNXVslKqG8rF0bgAF+LwLi/fiH/AzfXCk6nOqr0E1JQDFKIEDsTZQpzKHZ7dj2rj7+WY0/Z9xiO4Fp9ObM6Yao6aUoAq1TLJbNmpuAKnYXaHgz+K63FH47PfF+K3uMMeB3Af1uBrGJhKkKYEoEq1TJYkJzQO+nvCUrXTRtyMm+spPZFyVqBHMigfgz8RonhYh2tfwl24PikeJueVy9fNbIBWV8sWlNhW87rG4S7A0R2WbsXdcTjfztTbuaBh5QrySbgEZ+qszH+Av8dtpbn56Vp/0rts8jhq0gBq6Jr9Gwe5HL+Eom3ZEL6Jv8UXdGG+G/edjTPwF/hV9LQtq+NhfBifxdaVyy6S0sXTD1DjAD3CyfsrnI65bcsyHsdHcSc2MUvv8oe7esZVD/yinp4hOETopz/DGzrsfye+gmsk98mGJqqfxg1QpbpEPZcUaej1uBTnYlGHpS/iVtxYqD+Rpbxy+SPjfGZZJiWOwbvxR7t55gv4N1yXh4rHUqmud8X4gBozQB+sHqceknNoY4MX4vUd7rUDn8fH8A0MTpa1aeHak3GxcDbnd1j6uPCfbsWP6gVXLR3bHroGaNW3jjWrNAsW4DcFm5+MUtvSIeHPXI//wCtTZYYbQM3D7whFvgKz2pbVRNhyLe5J8vZsdtfi3RVALb/YCqFnzjAcN7XS93Ejbjlk50HPb5r3olXLxidOXYPUV5ZrWSrSIsHRFwnL2Ymj78U1ImzpSj+NCtCqh04wq1Yj5PxyYboP7bB0Mz4jfqX1yHs7Zmr8iAnHCZ14nvDe2+nH+Edh8TYNDFA5efd7HRWgxkMPwSeEs9dutgfwXyLqvt8Ue7VjAGq2cAfeK7i9PWypix/0T/HiaHveLUCrq2X1WHBJA4BWXVPD/wpx+jS2TDcwuwHqAPHDXoSlHc5wqTAiu43pit09IAc48/C7bTd+DhWcmVK+aSaC03LgrVK6RTivFTzTsqQklPu80e7TY3RaIESsSf24XH3gdsUcKyfRpZ9CkFSq5Y0ppw/klB8V+qfpyC5qnHHHeAEqta0ZwAbFbL1dBIaV6hKkJNWLYWFOdeTepes6rC8L9VAsxM+LLOMSYbqbd8iNRU8La/QIfmSUZFrv8vVNkXuycYYmQD12dVPGBFAnGoNzmZHPkZ0rN6/Nn8Vtlerxepd/F6zuK8vx/ZEU54m80WKRAShGecB2ITb34VOVavlrRndIx+wYF2O9YBx0ughDzsU5OM32OkUdzfAhE7mizwjz+2Yh2nva3wIRk71DGIteLGxJ0k2Y9gZAu1J/0QDnpHif0ylCN7xpAns6EO/H1ZgzWSCNR8QmkbYRXHCFCEBb6SV8B+vwPWwRMnsAjhJp2+NxZMs1JZGD+jLuWl1dbLyB8QwBCPyyEK9W+hbeJ3JHO7R45ldHIi0V8uwc4nUZ/rDlLPsJv+eLWdo+0c3NBIB+XSTamrRD+Cxf6qRsG9WMjP5Ktfwd4ewtEhF9k5aKkKNvopubHh00kg5ue79FpCn2SA0ANwtv+OWWrw7Az03G5mYCQPW29/sJHaOytmtF2ydSLJtFsmyzXbOa46KZIGKPdQDoI7hdcnelWn4WL+18+YCB+QduduWJHer0Kb0g5/MNe/01bPhpAehekUc6uuWzsjDX78XzeGzu/lufqdeKZyvV8npsaryeTjm9nEOJPy2860mlaQYoy/JjSXETVhmZDUyCIw4RXnWThjAoSkffyymvx/9VquUHsC7lvLVeFFYtm5wa2bTqoN7lj0iKLETqA4Ir9kQ9IgJ/rfC4LzTcBXJXTunclPO8yXIUp11JNyzRNvwNzsInhV7aQSOC2zMlYblOxy34kEkKOWaCDmqCNFSplv9HOImH41jhKR+HhcJsHyl8nnkia9gpEp8vMoU/TlQq1fKE0r8zAqA2oGr4YeP1lcraJaScGqAcKERroXAFlooK7jIjy9IlvD3zTyLF8SoEqE6lWj5EVGSbOeMfivDiJ7X63hXrCFF7pfF6Fj649ng7SztvnV2fvV/jHmsaYDXpdSKn9CoFKOgs/J3QhYVIfr1VF+b6yhWNXNKDi7flerpH5I5uaznTLCOzoeOi6VbS/UIcSkLRHiUC0K5p5dKfROvPCxegSVn3Sn7GArRO1O6bNF/U3hZ0a4EqfWVqGX7NyPBiUHduw6g03SL2pCg0ntry2Tmi5+eGSrW8UYfeIaisXSzlmpzNV0pn4o/bljxlEsKN6QOoQN0W3ISTDP/6c/DXoiRzH75aqZafs6u4zM2p50S8ReSU9mv5LuOOlEtP5VR7lQI0THfiV/BOwyJfEtWMJcJTHuhwXSF8oU6J+HtwY061CTd5TnOosZ5oerpSNBVs7bCsJHyg9tccnRs8bzfsKE6Ypp2DGjWrF3EVvorzhU46rMv9ZaHoH8I/49+xdbKqvdMOUBMkDFSq5XvwJWHuTxWe8mtEiLFQcE1NOIwbRU1sA76Ix6S0Ta2m96TdznaM2ezvCaCakb7FHLyhUHxzojHOaEDh8TUPH/X4zv79lIpaidQUqx6RgRzA9sxAsudm8kq1rFBXVxxrZKfHYOOM4wZou3DAmjQb19TVy7hxzQMnPjXY0z8ORdhojRiFrnjjD5p/1kS0v22sgK9eu8Tg7AEGHVFXvFsUGFsB2tQ4425pT0p6h5DpVi46FH+Juwd7+t+DgyvVsovy6SMujLo8HZCo5YNSI/6cOqpUy3LKC3sGZ12Iz4kyUutsyJCoxu4Y7T67BaiFKz4lOkbrbdedYHh84IzD+jbOHen95iaYb2wHKCVWTlLGrxMwlWp5jign/YuYFGrvDarjXxt7N64GqtYHitLMpYJFO03ovCzGlj4hqqH9OEJUTC9o29z7sGay9VdLi/ASUUw8Wyj2dnpOOKfX2UN3WVcAtYBUwomi2/0sUTJupy0iG/iKSHAdbSSXbhEFvvsnC6Cr+xY79IXDPX/wxmZb8nt0Hn/YLsYfPiR5UO5u9mxMiqCl7fY3xJDKacbmKtwpOGpSWoMb+5kv2uwuEYmz9v0Mif7Jjwh3YEzPHpembBG7t+FdQh/t6V4PNMBZN1FwKtWyxKwcSfuLRd92eytdc77sk8KB3HT093n72VPUSL7LJvvK4YXMykeJeOkswdr7t9x3SMj8F0RSfkOWrBrn2FKlupgkyelYIUrn27V0TbT63oHrtz//0oYFrzlo3DHZxIdZ1jb6k5NFIsG+2HB9axMeTJG+GFw5zk22jD8sElz4TtEu02mY5XOiqtGny2bxKQWoayD7FlMvSPnwBpAPYXOX41BzhBhdJiL/TuNQVdGd9nlsmywjMLUjmX1lKSOlUs75F0RT9/mCy+4TpvbLOvQVNsx2KUWu5xL8ls4DdU9o6JmU8rM5F101mM4MgKpl9VJW1NK7RP/gEW3P3CwU6A1ibjVDPSVFAPoOIVKv7XD75sjTx+qpvq7IxZQM+E5tNJ8ohhLJ18Wg21lGNksdaNgKfVRUJXKR89uEG9FpaK5fcN0a0jckg1ctm7r/zLBXdFBDj8wV7v/7RbNme1V0AA8KLlqq83zFd4WeuUsjufaqHgvvABIRn/2B4Jxjurz8GVE/uzU7/KnkWb0TbM6ccQA16epqmZxTSmmJUL7n6TwyTuiou/BxwV31n9p/TdFOLUN6p4tZtFMMj1W+IsY4r8V/m8Yxq2n99zgtQC0U/k1T5DaIGv2MnCTaR/toH+2jvUX/D9lgw/nbNnyTAAAAJXRFWHRkYXRlOmNyZWF0ZQAyMDIwLTAxLTEwVDE2OjM2OjE4KzAwOjAwCotL/QAAACV0RVh0ZGF0ZTptb2RpZnkAMjAyMC0wMS0xMFQxNjozNjoxOCswMDowMHvW80EAAABGdEVYdHNvZnR3YXJlAEltYWdlTWFnaWNrIDYuNy44LTkgMjAxOS0wMi0wMSBRMTYgaHR0cDovL3d3dy5pbWFnZW1hZ2ljay5vcmdBe+LIAAAAGHRFWHRUaHVtYjo6RG9jdW1lbnQ6OlBhZ2VzADGn/7svAAAAGHRFWHRUaHVtYjo6SW1hZ2U6OmhlaWdodAA1MTLA0FBRAAAAF3RFWHRUaHVtYjo6SW1hZ2U6OldpZHRoADUxMhx8A9wAAAAZdEVYdFRodW1iOjpNaW1ldHlwZQBpbWFnZS9wbmc/slZOAAAAF3RFWHRUaHVtYjo6TVRpbWUAMTU3ODY3NDE3OKnr2EAAAAATdEVYdFRodW1iOjpTaXplADIxLjJLQkLC0MsKAAAASnRFWHRUaHVtYjo6VVJJAGZpbGU6Ly8uL3VwbG9hZHMvNTYvOGJ2czNhVi8yMTA3L2ZpbGVfdHlwZV9ub2RlX2ljb25fMTMwMzAxLnBuZ3iS61EAAAAASUVORK5CYII=;container=0;" parent="Vt5023jZ4tZFl-p4LbUd-115" vertex="1">
          <mxGeometry x="14" y="4" width="72" height="72" as="geometry" />
        </mxCell>
        <mxCell id="Vt5023jZ4tZFl-p4LbUd-148" value="" style="shape=image;verticalLabelPosition=bottom;labelBackgroundColor=default;verticalAlign=top;aspect=fixed;imageAspect=0;image=data:image/png,iVBORw0KGgoAAAANSUhEUgAAAEgAAABICAQAAAD/5HvMAAAABGdBTUEAALGPC/xhBQAAACBjSFJNAAB6JgAAgIQAAPoAAACA6AAAdTAAAOpgAAA6mAAAF3CculE8AAAAAmJLR0QA/4ePzL8AAAAJcEhZcwAAdhwAAHYcAafCeOoAAAAHdElNRQfkCxwNIDMOkvzlAAAF2klEQVRo3u3Zf2yVZxUH8E/LpRXYGFAqMoFMycQBAwVkTkcwyoKiy8xmAJlZtgWjcct+mehm4jLY2C8cmi3RLW4EFoNGRhQ0yxbHdMrGUJBNHIzhVrfwqw5afrRQ2t57/INXhL7vvb23CTEx99t/muf7nOf59j3nOc85T6miiiqqqKKKKv6/UdMrX2+gfjq16/7fChpmkkuNNVqjnON222urv3hDV1GbOgMUtIk+6BiEYwrZ5Fjf9pJ2BXHGT95+K33BoCKLfstmGzxqSoVyxlnqT37vM1nkULfYJZ9IOOGoZnu8p11XMtZmjWlqM2w/ZqcQ/uGzFciZZIsQnjMii3wm2fiwlywxx6dMcKFJZviaVf6ZSN1tofqMxa92SAivGF2mnAa/FcJbpqbJOd5IxDxppsGpCMv5iDs1CaHd/QamVsj5rk4hLM9gZcx/QF444posOW8LYbMr1JVYZIpf6xJOeMiAFDvYL4Rw3M2Zbj0T8xwS8pamd/yEt4S81T7U6zLD/Fin0OG2jE0/bJMQmrOD9DRM9qYQnjW8JzXC74TwtMYyPjTnekoI+8zIYGdrFsKLxpRYo9FzQthpck+q1mIF4WUXlCUHRtmQnI2hKa7GTTqE8JOizs9ZUjx6ptsntJhdthz4osPCiawFDfLTJEV8s4j1NY4Ieffon/57HhHCI3IVCaq3Qgi/yQhtRvujEN7NdOpkO4SwLh09jNMk7E17slfMdEhoydyST3pHCC/7YA9meBI9fzMuy/BGIaxKf7pecU5yFO4own9dm1Cw7Iwk2t9ieeE9c7KM6jwtdFpQsRy4NXFadujWeVgIx9xw2uh8R4RO38nOU422CO+UkX2ycJnDwmtFk8VIzya32yXJyDS7hLDCudkmn3ZQeL6sRJ/GGE1CS9Y9lGBSEr7PG45GzwhhU/EEM1+H8Hif5HCeV4RjZpaYc5VWIe8+Az2gIOz3ueLTHxfC0j4K6ueXQofPl5xzt26h1RNahONuLF4Y5hLfDnaZfn2SNBA555WYkfcjHzXPEDeoEVZaXrymrHFAA7r6XDH3lxOut7LkrHFWuxjsNsvO4hNzhiTLVp6FKkGb46e+V2epiTk1COvtLKN6KYawvSRf5w7Tk99Hu86i7GL+JApCt/ln9fss1C60WaddOOiqUpMPCgXXnkU5l2gSCh7TaLkQXje++PTXhHD7WZPzAetPu2LH2JgUgsOKGfxMCMvOkpx6yxSEvS5PRuY4IOTdVSxmb9ItrOi1qe4brtUudLnt1EitO3ULLcUiabajwhYNfdqw1izLXF/ktp+eXKQrDT5tdKjVQtjmoiyjsXYKB0pcj6UwxbvCi5nNdWNy0281tgczMen/1mTU4+qtFcLdfRJ0lxAezWDqkuhpzqzU5zoidLsnq2y+JWl+K3fayVqqO7O4W5CUYd/LDN7+fiiEVlemyYs0CR19SI5fdlzY5vwUMzVpuH/unCK2I72Q5KSJPan/dB0bjapIzpCk2HowxYxIHhBeNaGE/Qx7ikXSNPuEggcraoS+oVPY4+M9xnMeStxxRS8r3Kwj6c16lD61vi8vHLWw7Hx0qV1CwaJUjMzVKnS7t9c/b1CSllt8pSfVYI0Q/uW6sr7SVK8KYX3qkWli8oCwNutIpzDW1qS/n5CmTvbqh9zv/SUXeZ+5ticBOa0H12idEP5e6vo8A1c6kPSwqV3HW68g5P3BPA0ZzqsxxCxPaUv6zp4da5375IVW88qUQ61F8kIhHUmM9Jh2IXTYbInLTdBosCFGmeZLHrbJUSF0WZs+rhYkneriiurz4clpPeSraXKAq21InlIKOjTbZqM/26XViVNvsW+6PSNCLk4c+asy35j+i0lJRO7IvsCGmWeVvadeXU9/Fj7iBbe6IMOdOT9w0Hb3GlmhHJjoSW9r9kSxQ97fhcabrtH5hqp1zD4H7PBXrzucaVFjhOFa7C9VL5dAzigDtJTzr4V6tTp1yPdpoyqqqKKKKqqooooz8G8T6F2TFHE7JgAAACV0RVh0ZGF0ZTpjcmVhdGUAMjAyMC0xMS0yOFQxMzozMjo1MCswMDowMOwE54QAAAAldEVYdGRhdGU6bW9kaWZ5ADIwMjAtMTEtMjhUMTM6MzI6NTArMDA6MDCdWV84AAAAIHRFWHRzb2Z0d2FyZQBodHRwczovL2ltYWdlbWFnaWNrLm9yZ7zPHZ0AAAAYdEVYdFRodW1iOjpEb2N1bWVudDo6UGFnZXMAMaf/uy8AAAAYdEVYdFRodW1iOjpJbWFnZTo6SGVpZ2h0ADUxMo+NU4EAAAAXdEVYdFRodW1iOjpJbWFnZTo6V2lkdGgANTEyHHwD3AAAABl0RVh0VGh1bWI6Ok1pbWV0eXBlAGltYWdlL3BuZz+yVk4AAAAXdEVYdFRodW1iOjpNVGltZQAxNjA2NTcwMzcwzjUvZAAAABN0RVh0VGh1bWI6OlNpemUAMTMxNjRCQoyPyPUAAABKdEVYdFRodW1iOjpVUkkAZmlsZTovLy4vdXBsb2Fkcy81Ni9CT0RDSjlxLzI2OTkvZXhwcmVzc2pzX2xvZ29faWNvbl8xNjkxODUucG5n7iuEMAAAAABJRU5ErkJggg==;imageBackground=default;imageBorder=default;strokeWidth=0;perimeterSpacing=0;" parent="Vt5023jZ4tZFl-p4LbUd-115" vertex="1">
          <mxGeometry x="56" y="46" width="30" height="30" as="geometry" />
        </mxCell>
        <mxCell id="Vt5023jZ4tZFl-p4LbUd-119" value="" style="group" parent="1" vertex="1" connectable="0">
          <mxGeometry x="546" y="325.14" width="120" height="112" as="geometry" />
        </mxCell>
        <mxCell id="Vt5023jZ4tZFl-p4LbUd-99" value="" style="rounded=1;whiteSpace=wrap;html=1;fillStyle=auto;dashed=1;container=0;" parent="Vt5023jZ4tZFl-p4LbUd-119" vertex="1">
          <mxGeometry x="17.5" width="85" height="80" as="geometry" />
        </mxCell>
        <mxCell id="Vt5023jZ4tZFl-p4LbUd-100" value="Consumer&lt;br style=&quot;--un-rotate: 0; --un-rotate-x: 0; --un-rotate-y: 0; --un-rotate-z: 0; --un-scale-x: 1; --un-scale-y: 1; --un-scale-z: 1; --un-skew-x: 0; --un-skew-y: 0; --un-translate-x: 0; --un-translate-y: 0; --un-translate-z: 0; --un-pan-x: ; --un-pan-y: ; --un-pinch-zoom: ; --un-scroll-snap-strictness: proximity; --un-ordinal: ; --un-slashed-zero: ; --un-numeric-figure: ; --un-numeric-spacing: ; --un-numeric-fraction: ; --un-border-spacing-x: 0; --un-border-spacing-y: 0; --un-ring-offset-shadow: 0 0 rgb(0 0 0 / 0); --un-ring-shadow: 0 0 rgb(0 0 0 / 0); --un-shadow-inset: ; --un-shadow: 0 0 rgb(0 0 0 / 0); --un-ring-inset: ; --un-ring-offset-width: 0px; --un-ring-offset-color: #fff; --un-ring-width: 0px; --un-ring-color: rgb(147 197 253 / .5); --un-blur: ; --un-brightness: ; --un-contrast: ; --un-drop-shadow: ; --un-grayscale: ; --un-hue-rotate: ; --un-invert: ; --un-saturate: ; --un-sepia: ; --un-backdrop-blur: ; --un-backdrop-brightness: ; --un-backdrop-contrast: ; --un-backdrop-grayscale: ; --un-backdrop-hue-rotate: ; --un-backdrop-invert: ; --un-backdrop-opacity: ; --un-backdrop-saturate: ; --un-backdrop-sepia: ; border-color: var(--border-color);&quot;&gt;(Python env)" style="text;html=1;strokeColor=none;fillColor=none;align=center;verticalAlign=middle;whiteSpace=wrap;rounded=0;container=0;" parent="Vt5023jZ4tZFl-p4LbUd-119" vertex="1">
          <mxGeometry y="82" width="120" height="30" as="geometry" />
        </mxCell>
        <mxCell id="Vt5023jZ4tZFl-p4LbUd-118" value="" style="shape=image;verticalLabelPosition=bottom;labelBackgroundColor=default;verticalAlign=top;aspect=fixed;imageAspect=0;image=data:image/png,iVBORw0KGgoAAAANSUhEUgAAAEgAAABICAYAAABV7bNHAAAABGdBTUEAALGPC/xhBQAAAAFzUkdCAK7OHOkAAAAgY0hSTQAAeiYAAICEAAD6AAAAgOgAAHUwAADqYAAAOpgAABdwnLpRPAAAAAZiS0dEAP8A/wD/oL2nkwAAAAlwSFlzAADsOAAA7DgBcSvKOAAAChpJREFUeNrtnHtwFdUdxz/n5uYtCYQ0DEUoLQUGWyjSUYJ2QEWwoMXHH+BYGaVD7dPWR2sdMh3b8dE6VnR0psM4nbH4hzr2BVooSm2tWocbWkWKvATLaxQdAiEhCXnc/faP3Zvc3bu7997cvZp0cv7IbnbPnnN+n/P9/c7Zs7sXRtJIGkkj6ZNL5uOsrLFpIzLGmKRVA9SAygS1SDWgKkQ5KA7qRrSBWoB2pC7gpBG9yXLD9vuX//8AalzzPEA1MA10OXAe0nTQeEEpUhVQASpBitltkoXoBXU6cM6A9iLtB14GvWWStCiGEg/fMDwBNTa9ADAadC3ietAcYCySASEAycktz37IMdSB2A/agPS0VdZ3INZTRmJtcUBFDqix6c/E+s5ixcvngO5FLAKV0g+kIDje/T2gB5Cew5iexNqVkQOKRV4iwoqXzwKeQiwtHI6C4ACaAawDvous+Nzbn4rcmpIoC3PcqgpYi3SJYwVIZ4BXgb86MWUcKB6oEtcx73k8+yoDGoEdwIGJ867h2LYNkdkUsYIEaCrSpWkGdAFrQMtifRXfAq4EPZYSU6AL+boVaYpK25dGI92GVNPPfEgCstv7aVDNgAH8G7QeTNcbDy0BWW1IvwG9Hw2c/vPngyanyW4IArKNMmlwALUJnZW74R2grgjhgFSLmBAxn2IE6QE4QkiahvgsEo13/cE+J81EjIsQzsB1Q1pBkguOs/95O+ZYF8toIrAMeBA0Klo4aT0TYYpHW5wG/rpHqMXABaB2oA50TuRwpPTahyaggVHZd54zBjEmercqHpzIAbkVnsNsOGo40fOJ2sUAOAl6FVGaCQf3vvuYgCqk2aCy/OEUgU70gASGZsRV/qflyuraMcbCsqaBtgLjBwfnE3SxuU3PAwYjq9qJJzGQ07Y0YxTiJi5IcucVFqgeiA0WjgTNj99i+N6Sb4KmOGWmyrEQJ0C7kRKopJWSPsx5LxcGyFnPiSFmgLUUuALxOaAkMzD69GSQajI6W8JeH6oflHL6s1TEgRsQCwbqdMW9LuCfkPwFSf6h/yxMmpnBkEIBNa55HgznIH4A+g5wbvCdeEBA9jsWSUD2KxvAylSxG1Il4nLQbMTPQeu087I+M+tvvgwCJ4qOcmoQDwE/88JRLnCKNlqF1WfSrvVVUGpbD7oPuAYMevvS3AHZcEwcuBO0GlQ6PODIncc9y/bb1iLdg6ypQUIJudXQQtCtQHz4wHG1P21XYdsvIq2CCvT2JdkBNa7ZCKgS9G1gzLCBIzkN9GtHVkjXYXVOxMqcJgQp6EvA/HQ5KqOB3sbi6clc4Hh62zXi5QUHICnUZT8g8eTNDmkKsNAPhAvQvKYXUo1dBqpLVaBcpJ2nMgbK8z+WJxxAbRIf0jMpBoplQgpVUBw0Hytp9Ob8YEBSEqAa6cJhBgfEsdauso843DAG8am83UycjzFjvbHM7WJ2/fXYazjDCQ6g59Zeue0UPSVTQBMCFRQ8qjUgRntjvScGCdB40Oi84OgTh9MMPFse7wOYixiVCcALLGM7GjTJqyDXTNo5NQVpVF7KyTkgFwXOPuCOFbMOHr1i2rF6xLUZ9WafNII9w56EJ7lvNeyCJtrKGvJu1QbaDDyY+PX3d8D5sGvszaB5/nC8ZWVsDagyHJCd6iKG04f9EkIr0OnqTt/FrpC67etbgTdBL4Le+Or0Y13sWWRI6mrQnUBJcDAOVRB+KVNBhsqcYk52eGeA10HPIvZaMh/2JmNd7WfjVk8yJiRn8PC4aiqemXTF2Mc6u+M9pw43dHF4fO+mB55g6dy9Bqx6LG4G/RhoCB/OlTckj4KCetJjfHY47wJrgM0Q69zc9Efq6g6VcKq+is6yschUhTfc77hABixiWFQD5yBdBFyDmIm9VBICJwoFIcB0F+hW7wDfKC9JNj9941Ym1HaOpZ0ltH9mKfYi1nhQeeAwnL3njXN9GVDu/E92OAEKwmtHGCD7olOZF+UMpxO4f0xld/NfbtkUQ2YxcDdwEag0uAcL7HmX6ny23qHeD0rAmrbPPIgPCgjIW5KW2bDlgdUgswJYj1gQDieLcXm7hzK3uXWEhdTqBeVzs6pDQOcgJoF9oN8vn32wS/+9bjbwS6SGSBSQfV0nxyAcWkcbcDBcQRJIR+0hOeeAnMrXIrHzrlX3AKxCmpSfArIAyAqw4I44DTruDdZ+yx2toBO+vRIMB6RDR09VH9aRqycgLfVVgF9gJBLjclRQqJvtR7R4B7MMBQlOIN4axAz57Afbp3WTNJMh9eaGRwEUzbgoIDcDHVju1zZdgBK/uh4jS6DXQMk84Nj7740DmAiq/thHqpwhe8qxD5wANgCYi7aFKKj/Am1FvJcXHAE9cSEqkOdeLsOrIoIUMn/JKaYNlP0KaJc3/vgDElhUHgH9KS84/YE2W08WqKRM4zL/z09tLdhvyp41jc3ZASUevoGYOgF+i7Q3LziW0gakQbhJtvlMpnGFdkQv4lEsXvERT4CCwDE0uQd0L/a3EuFwnBtPTB4KGvyELqJ4RQ9iHfAohqSZl6meQECJR27EeUL5O6S7sV9pCYaT0fshCsi4fjDGFaygQ6A7sG+DzgTBgZBn84m1K5l7+/pe4AngPaSfAI2gCl84cioXhRjXC/oIkSyCgizQAWALaBP2hzGWmbedsBT68kLikZu48LYn++KmdEuSvmZQI2IGaCyOQzmtiYEOQkNfge5xFFgBOk7gM7uAYOE6J/+T4iS9dFBqCFNNeor0YxbtvwoMNyM9GQ4pUEnvghZhWe/3A/Jdpk0rY+CckHoBmQveiMym6N8wKyyGnIt4BmO6kUxQFS6F2LsG6AB+BOyO0qJivKM4+FEIKkktuqdZH+46/WW3AzVRm1K8t1wLXrzKe6QKC05DBFCQ4dHNddoQraBaRK1/B0SbivMpQjQTOe91CWA56GLsh4Ovh6tzKAKyk/ExLt+JnNfNTgC3Ay9izDFk/R1xK3DYlT99DjYkAdlGmQiWP/FAPorYh8DMeS118T6kQ2kZne1QBmS38QDQHo2b9ecfReoDmNQ5qRKo9pSpqL2sGB/UvWM/GxvE/VLQfRtMRlqJpWolvgJQCawGZqWV2Qa0RGtP5MO8AawW4DHELOxfU3BD8QdAFpXFgSbQQmLai5gGzEMqS8v3EuhI1IAi/25euxeD/cTzp6A7kSocIwneDkJt7u120Epgn9+iVyEp8hhkznsJpG7QfYgfAgcLX98JvL4H2AC6Ccy+YsyFivbTFNq1EOIGevkC6OtIX8N+Oasy09i8FCSgBfQvxDPARuC0aUwUxY6i/7iJdl7q1GMaEF8GXYY0FZiO/cMmVfZWcQYW+y3sr3POgjqAXqTjwB6k3cBW0H6g08wtDpiPDZAL1o4FqSrLgDo7PqkWUQcahf3zODgLZx1Ip4GTtsvSjtFpQOaCbQW0YiSNpJE0koZP+h/2ei/nBUxB9wAAACV0RVh0ZGF0ZTpjcmVhdGUAMjAyMC0wMS0xMFQxNjozNToyMSswMDowMPqrss4AAAAldEVYdGRhdGU6bW9kaWZ5ADIwMjAtMDEtMTBUMTY6MzU6MjErMDA6MDCL9gpyAAAARnRFWHRzb2Z0d2FyZQBJbWFnZU1hZ2ljayA2LjcuOC05IDIwMTktMDItMDEgUTE2IGh0dHA6Ly93d3cuaW1hZ2VtYWdpY2sub3JnQXviyAAAABh0RVh0VGh1bWI6OkRvY3VtZW50OjpQYWdlcwAxp/+7LwAAABh0RVh0VGh1bWI6OkltYWdlOjpoZWlnaHQANTEywNBQUQAAABd0RVh0VGh1bWI6OkltYWdlOjpXaWR0aAA1MTIcfAPcAAAAGXRFWHRUaHVtYjo6TWltZXR5cGUAaW1hZ2UvcG5nP7JWTgAAABd0RVh0VGh1bWI6Ok1UaW1lADE1Nzg2NzQxMjGtQJShAAAAE3RFWHRUaHVtYjo6U2l6ZQAyNS44S0JCNvxpeAAAAEx0RVh0VGh1bWI6OlVSSQBmaWxlOi8vLi91cGxvYWRzLzU2LzhidnMzYVYvMjEwNy9maWxlX3R5cGVfcHl0aG9uX2ljb25fMTMwMjIxLnBuZzu9PJUAAAAASUVORK5CYII=;" parent="Vt5023jZ4tZFl-p4LbUd-119" vertex="1">
          <mxGeometry x="24" y="4" width="72" height="72" as="geometry" />
        </mxCell>
        <mxCell id="Vt5023jZ4tZFl-p4LbUd-126" value="" style="endArrow=classic;html=1;rounded=0;entryX=1;entryY=0.5;entryDx=0;entryDy=0;" parent="1" target="Vt5023jZ4tZFl-p4LbUd-39" edge="1">
          <mxGeometry width="50" height="50" relative="1" as="geometry">
            <mxPoint x="712.25" y="515.14" as="sourcePoint" />
            <mxPoint x="652.25" y="515.14" as="targetPoint" />
            <Array as="points" />
          </mxGeometry>
        </mxCell>
        <mxCell id="Vt5023jZ4tZFl-p4LbUd-140" value="" style="endArrow=classic;html=1;rounded=0;" parent="1" edge="1">
          <mxGeometry width="50" height="50" relative="1" as="geometry">
            <mxPoint x="526" y="365.14" as="sourcePoint" />
            <mxPoint x="556" y="365.14" as="targetPoint" />
          </mxGeometry>
        </mxCell>
        <mxCell id="Vt5023jZ4tZFl-p4LbUd-141" value="" style="endArrow=classic;html=1;rounded=0;" parent="1" edge="1">
          <mxGeometry width="50" height="50" relative="1" as="geometry">
            <mxPoint x="606" y="315.14" as="sourcePoint" />
            <mxPoint x="696" y="295.14" as="targetPoint" />
            <Array as="points">
              <mxPoint x="606" y="295.14" />
            </Array>
          </mxGeometry>
        </mxCell>
        <mxCell id="Vt5023jZ4tZFl-p4LbUd-142" value="" style="group" parent="1" vertex="1" connectable="0">
          <mxGeometry x="291" y="375.14" width="50" height="123.13999999999999" as="geometry" />
        </mxCell>
        <mxCell id="Vt5023jZ4tZFl-p4LbUd-134" value="Users" style="text;html=1;strokeColor=none;fillColor=none;align=center;verticalAlign=middle;whiteSpace=wrap;rounded=0;container=0;" parent="Vt5023jZ4tZFl-p4LbUd-142" vertex="1">
          <mxGeometry x="1.8700000000000045" y="100" width="46.25" height="23.14" as="geometry" />
        </mxCell>
        <mxCell id="Vt5023jZ4tZFl-p4LbUd-137" value="" style="shape=image;verticalLabelPosition=bottom;labelBackgroundColor=default;verticalAlign=top;aspect=fixed;imageAspect=0;image=data:image/png,iVBORw0KGgoAAAANSUhEUgAAAEgAAABICAMAAABiM0N1AAAABGdBTUEAALGPC/xhBQAAAAFzUkdCAK7OHOkAAAAgY0hSTQAAeiYAAICEAAD6AAAAgOgAAHUwAADqYAAAOpgAABdwnLpRPAAAAN5QTFRFAAAAAAAAAAAAAAAAAAAAAAAAAAAAAAAAAAAAAAAAAAAAAAAAAAAAAAAAAAAAAAAAAAAAAAAAAAAAAAAAAAAAAAAAAAAAAAAAAAAAAAAAAAAAAAAAAAAAAAAAAAAAAAAAAAAAAAAAAAAAAAAAAAAAAAAAAAAAAAAAAAAAAAAAAAAAAAAAAAAAAAAAAAAAAAAAAAAAAAAAAAAAAAAAAAAAAAAAAAAAAAAAAAAAAAAAAAAAAAAAAAAAAAAAAAAAAAAAAAAAAAAAAAAAAAAAAAAAAAAAAAAAAAAAAAAA////qYuSBwAAAEh0Uk5TAA84PwZTvfP4AnLy9eThPuu2RSIeRLUEo8AZBwMTz2hxw8FP4PlBlmlraislQBqR+/dl4scmCdBG/YTlXBIfDKck2Ncj9qZSacq4tQAAAAFiS0dESYcF5HwAAAAJcEhZcwAA7DgAAOw4AXEryjgAAAFdSURBVFjD7ZhpU8IwEIYL5QhXi1CF1gJauTyqYjm9KFJ0//8vsiJjqJOMm04/OJrn225nnsmk+yHvKorkr5BKq1zSKbQmk83lCZd8LpvBeQrFEpQrGodKGUrFAkqkV+GgVjc41A+PoKpjPI0mmBatjnfYXy3LhGYDIWq1oUOrk1Nzi3NGex1otxAio9vr02oAO4a01+91DYxII+rehZ0Pt1xc0p5KNHERCxHRlcubR/daSHRzO2KP44jcCYkGQDzWOHokvHUx0XjCGsfJWFhkTlkfp6YUSZEUSZEUSZEUSdF/Fc3mrBfkfCYsWrDfkAtB0f0DL9R4j0Kip2deqDGW8R/sth2t44pc31eTEK1eANZBAiJ1A7BR44giMSs80To80Wq/g4xZ0eAXor/60eiJDH5hFHWsSOfbX7McXBT9DMcBb4yCGjYcJxfXf1wgvCEXCMrHSsNNYqUh+e28AyhfcuDBdqHEAAAAJXRFWHRkYXRlOmNyZWF0ZQAyMDE4LTA2LTA3VDExOjMwOjQxKzAyOjAw8lAZngAAACV0RVh0ZGF0ZTptb2RpZnkAMjAxOC0wNi0wN1QxMTozMDo0MSswMjowMIMNoSIAAABGdEVYdHNvZnR3YXJlAEltYWdlTWFnaWNrIDYuNy44LTkgMjAxNi0wNi0xNiBRMTYgaHR0cDovL3d3dy5pbWFnZW1hZ2ljay5vcmfmvzS2AAAAGHRFWHRUaHVtYjo6RG9jdW1lbnQ6OlBhZ2VzADGn/7svAAAAGHRFWHRUaHVtYjo6SW1hZ2U6OmhlaWdodAA1MTLA0FBRAAAAF3RFWHRUaHVtYjo6SW1hZ2U6OldpZHRoADUxMhx8A9wAAAAZdEVYdFRodW1iOjpNaW1ldHlwZQBpbWFnZS9wbmc/slZOAAAAF3RFWHRUaHVtYjo6TVRpbWUAMTUyODM2Mzg0MUxRhnYAAAATdEVYdFRodW1iOjpTaXplADQuNjNLQkK7rPVYAAAAgXRFWHRUaHVtYjo6VVJJAGZpbGU6Ly8uL3VwbG9hZHMvNTYvSFhUNVpWYy8xNTI1Lzk3NjYwNC1hcHBsaWFuY2VzLWNlbGwtcGhvbmUtY2VsbHBob25lLW1vYmlsZS1tb2JpbGVwaG9uZS1waG9uZS1zbWFydHBob25lXzEwNjU2OS5wbmctGLblAAAAAElFTkSuQmCC;" parent="Vt5023jZ4tZFl-p4LbUd-142" vertex="1">
          <mxGeometry width="50" height="50" as="geometry" />
        </mxCell>
        <mxCell id="Vt5023jZ4tZFl-p4LbUd-138" value="" style="shape=image;verticalLabelPosition=bottom;labelBackgroundColor=default;verticalAlign=top;aspect=fixed;imageAspect=0;image=data:image/png,iVBORw0KGgoAAAANSUhEUgAAAEgAAABICAMAAABiM0N1AAAABGdBTUEAALGPC/xhBQAAAAFzUkdCAK7OHOkAAAAgY0hSTQAAeiYAAICEAAD6AAAAgOgAAHUwAADqYAAAOpgAABdwnLpRPAAAARFQTFRFAAAAAAAAAAAAAAAAAAAAAAAAAAAAAAAAAAAAAAAAAAAAAAAAAAAAAAAAAAAAAAAAAAAAAAAAAAAAAAAAAAAAAAAAAAAAAAAAAAAAAAAAAAAAAAAAAAAAAAAAAAAAAAAAAAAAAAAAAAAAAAAAAAAAAAAAAAAAAAAAAAAAAAAAAAAAAAAAAAAAAAAAAAAAAAAAAAAAAAAAAAAAAAAAAAAAAAAAAAAAAAAAAAAAAAAAAAAAAAAAAAAAAAAAAAAAAAAAAAAAAAAAAAAAAAAAAAAAAAAAAAAAAAAAAAAAAAAAAAAAAAAAAAAAAAAAAAAAAAAAAAAAAAAAAAAAAAAAAAAAAAAAAAAAAAAAAAAAAAAA////aOGfXgAAAFl0Uk5TAA04QD+x8vgz1vbk4bDaUiEe26/tbQQHA+z3QXHDwMFPlmluCccm4pH7ZSUaexe5uBY+9T0w59H0/FoCE/MoCCdO6L9e/gEkYGinZl8SHx2jDIXl412S/fowBlLiAAAAAWJLR0RaA7ulogAAAAlwSFlzAADsOAAA7DgBcSvKOAAAAWtJREFUWMPtl1lTgmAUQK+4oFgqpGVYUCpapm2m5pa7Vrbv9///kQiX0QcjuTxU850XZuCbMwPDnLkXgPEncXBOFwkn5/jycG4PT8Tj5gC8PhT8KyT8Avq8sIqBYEgkEQpKuAZhjMD6BokoRHATUI7B1rZCQN2BmIyAggt2kUQcXMJEFEjELZIIzImUpNW/MKkwERMxERMxERMxERPRRVrK6tyX0uZEfNrqJJrmZ0R7+7L12VjmM1PRAWlid2anIjI/E4m5nGiH6PAI8fjEBtFpHjF/ZoOoUEQsFmwQRTOlUiZqLjovV0y+ZLVWq5ocqZTroKF60Uh+S8PseVNFDVptlDqUnUZROhK2W1DtSj3aToPYk7r6y/cHl4tXlivV2Hf0zeV6uPjUzaAPZoxSZUSHxq8R3d6N+nf/YMRTz2AuO07i41Kip+dxAOtGPPUMhsc3Xl6XEr29T/onyDMXnY/hUqLFzdR7yPg3fAIs9+OvbqmIKwAAACV0RVh0ZGF0ZTpjcmVhdGUAMjAxOC0wNi0wN1QxMToyOTozNSswMjowMDFBwJ4AAAAldEVYdGRhdGU6bW9kaWZ5ADIwMTgtMDYtMDdUMTE6Mjk6MzUrMDI6MDBAHHgiAAAARnRFWHRzb2Z0d2FyZQBJbWFnZU1hZ2ljayA2LjcuOC05IDIwMTYtMDYtMTYgUTE2IGh0dHA6Ly93d3cuaW1hZ2VtYWdpY2sub3Jn5r80tgAAABh0RVh0VGh1bWI6OkRvY3VtZW50OjpQYWdlcwAxp/+7LwAAABh0RVh0VGh1bWI6OkltYWdlOjpoZWlnaHQANTEywNBQUQAAABd0RVh0VGh1bWI6OkltYWdlOjpXaWR0aAA1MTIcfAPcAAAAGXRFWHRUaHVtYjo6TWltZXR5cGUAaW1hZ2UvcG5nP7JWTgAAABd0RVh0VGh1bWI6Ok1UaW1lADE1MjgzNjM3NzVrTVaRAAAAE3RFWHRUaHVtYjo6U2l6ZQA0LjE3S0JChu6+HwAAAHl0RVh0VGh1bWI6OlVSSQBmaWxlOi8vLi91cGxvYWRzLzU2L0hYVDVaVmMvMTUyNS85NzY1OTktYWxsLWluLW9uZS1hcHBsaWFuY2VzLWRlc2t0b3AtZGlzcGxheS1lbGVjdHJvbmljcy1wYy1zY3JlZW5fMTA2NTM0LnBuZ+AgwjwAAAAASUVORK5CYII=;" parent="Vt5023jZ4tZFl-p4LbUd-142" vertex="1">
          <mxGeometry y="50" width="50" height="50" as="geometry" />
        </mxCell>
        <mxCell id="Vt5023jZ4tZFl-p4LbUd-143" value="" style="endArrow=classic;html=1;rounded=0;" parent="1" edge="1">
          <mxGeometry width="50" height="50" relative="1" as="geometry">
            <mxPoint x="346" y="435.14" as="sourcePoint" />
            <mxPoint x="426" y="485.14" as="targetPoint" />
            <Array as="points">
              <mxPoint x="396" y="435.14" />
              <mxPoint x="396" y="485.14" />
            </Array>
          </mxGeometry>
        </mxCell>
        <mxCell id="Vt5023jZ4tZFl-p4LbUd-144" value="" style="endArrow=classic;html=1;rounded=0;" parent="1" edge="1">
          <mxGeometry width="50" height="50" relative="1" as="geometry">
            <mxPoint x="346" y="425.14" as="sourcePoint" />
            <mxPoint x="426" y="365.14" as="targetPoint" />
            <Array as="points">
              <mxPoint x="396" y="425.14" />
              <mxPoint x="396" y="365.14" />
            </Array>
          </mxGeometry>
        </mxCell>
        <mxCell id="N5-LPZXKi_8cZZHX1J1W-1" value="" style="endArrow=classic;html=1;rounded=0;" edge="1" parent="1">
          <mxGeometry width="50" height="50" relative="1" as="geometry">
            <mxPoint x="607" y="440" as="sourcePoint" />
            <mxPoint x="607" y="470" as="targetPoint" />
          </mxGeometry>
        </mxCell>
        <mxCell id="N5-LPZXKi_8cZZHX1J1W-4" value="App Network" style="text;html=1;align=center;verticalAlign=middle;whiteSpace=wrap;rounded=0;" vertex="1" parent="1">
          <mxGeometry x="410" y="240" width="100" height="20" as="geometry" />
        </mxCell>
        <mxCell id="Vt5023jZ4tZFl-p4LbUd-129" value="" style="endArrow=classic;html=1;rounded=0;" parent="1" edge="1">
          <mxGeometry width="50" height="50" relative="1" as="geometry">
            <mxPoint x="748.823355146487" y="390.14" as="sourcePoint" />
            <mxPoint x="748.7079932590096" y="355.14" as="targetPoint" />
          </mxGeometry>
        </mxCell>
      </root>
    </mxGraphModel>
  </diagram>
</mxfile>
